<?xml version="1.0" encoding="UTF-8" standalone="no"?>
<svg width="209.973mm" height="147.997mm"
 viewBox="0 0 2480 1748"
 xmlns="http://www.w3.org/2000/svg" xmlns:xlink="http://www.w3.org/1999/xlink"  version="1.2" baseProfile="tiny">
<title>Qt SVG Document</title>
<desc>Generated with Qt</desc>
<defs>
</defs>
<g fill="none" stroke="black" stroke-width="1" fill-rule="evenodd" stroke-linecap="square" stroke-linejoin="bevel" >

<g fill="#ffffff" fill-opacity="1" stroke="none" transform="matrix(1,0,0,1,0,0)"
font-family="Sans" font-size="41.6667" font-weight="400" font-style="normal" 
>
<path vector-effect="none" fill-rule="evenodd" d="M0,0 L2480,0 L2480,1748 L0,1748 L0,0"/>
</g>

<g fill="none" stroke="#000000" stroke-opacity="1" stroke-width="1" stroke-linecap="square" stroke-linejoin="bevel" transform="matrix(1,0,0,1,0,0)"
font-family="Sans" font-size="41.6667" font-weight="400" font-style="normal" 
>
</g>

<g fill="#000000" fill-opacity="1" stroke="#000000" stroke-opacity="1" stroke-width="1" stroke-linecap="butt" stroke-linejoin="miter" stroke-miterlimit="2" transform="matrix(1,0,0,1,0,0)"
font-family="Sans" font-size="41.6667" font-weight="400" font-style="normal" 
>
</g>

<g fill="#000000" fill-opacity="1" stroke="#000000" stroke-opacity="1" stroke-width="1" stroke-linecap="butt" stroke-linejoin="miter" stroke-miterlimit="2" transform="matrix(1,0,0,1,0,0)"
font-family="Sans" font-size="41.6667" font-weight="400" font-style="normal" 
>
</g>

<g fill="#989898" fill-opacity="1" stroke="#989898" stroke-opacity="1" stroke-width="6" stroke-linecap="square" stroke-linejoin="bevel" transform="matrix(1,0,0,1,0,0)"
font-family="Sans" font-size="41.6667" font-weight="400" font-style="normal" 
>
</g>

<g fill="#989898" fill-opacity="1" stroke="none" transform="matrix(1,0,0,1,0,0)"
font-family="Sans" font-size="41.6667" font-weight="400" font-style="normal" 
>
<path vector-effect="none" fill-rule="evenodd" d="M589.778,289.562 L563.462,355.351 L594.164,342.194 L611.708,298.334 L589.778,289.562"/>
</g>

<g fill="#989898" fill-opacity="1" stroke="#989898" stroke-opacity="1" stroke-width="6" stroke-linecap="square" stroke-linejoin="bevel" transform="matrix(1,0,0,1,0,0)"
font-family="Sans" font-size="41.6667" font-weight="400" font-style="normal" 
>
</g>

<g fill="#989898" fill-opacity="1" stroke="none" transform="matrix(1,0,0,1,0,0)"
font-family="Sans" font-size="41.6667" font-weight="400" font-style="normal" 
>
<path vector-effect="none" fill-rule="evenodd" d="M681.883,377.281 L594.164,342.194 L563.462,355.351 L695.041,407.983 L681.883,377.281"/>
</g>

<g fill="#989898" fill-opacity="1" stroke="#989898" stroke-opacity="1" stroke-width="6" stroke-linecap="square" stroke-linejoin="bevel" transform="matrix(1,0,0,1,0,0)"
font-family="Sans" font-size="41.6667" font-weight="400" font-style="normal" 
>
</g>

<g fill="#989898" fill-opacity="1" stroke="none" transform="matrix(1,0,0,1,0,0)"
font-family="Sans" font-size="41.6667" font-weight="400" font-style="normal" 
>
<path vector-effect="none" fill-rule="evenodd" d="M699.427,333.422 L681.883,377.281 L695.041,407.983 L721.357,342.194 L699.427,333.422"/>
</g>

<g fill="#989898" fill-opacity="1" stroke="#989898" stroke-opacity="1" stroke-width="6" stroke-linecap="square" stroke-linejoin="bevel" transform="matrix(1,0,0,1,0,0)"
font-family="Sans" font-size="41.6667" font-weight="400" font-style="normal" 
>
</g>

<g fill="#000000" fill-opacity="1" stroke="#000000" stroke-opacity="1" stroke-width="6" stroke-linecap="square" stroke-linejoin="bevel" transform="matrix(1,0,0,1,0,0)"
font-family="Sans" font-size="41.6667" font-weight="400" font-style="normal" 
>
</g>

<g fill="none" stroke="#000000" stroke-opacity="1" stroke-width="6" stroke-linecap="square" stroke-linejoin="bevel" transform="matrix(1,0,0,1,655.567,315.878)"
font-family="Sans" font-size="41.6667" font-weight="400" font-style="normal" 
>
<path vector-effect="none" fill-rule="evenodd" d="M9.64425,0 C9.64425,-5.32637 5.32637,-9.64425 0,-9.64425 C-5.32637,-9.64425 -9.64425,-5.32637 -9.64425,0 C-9.64425,5.32637 -5.32637,9.64425 0,9.64425 C5.32637,9.64425 9.64425,5.32637 9.64425,0 "/>
</g>

<g fill="#000000" fill-opacity="1" stroke="#000000" stroke-opacity="1" stroke-width="6" stroke-linecap="square" stroke-linejoin="bevel" transform="matrix(1,0,0,1,0,0)"
font-family="Sans" font-size="41.6667" font-weight="400" font-style="normal" 
>
</g>

<g fill="none" stroke="#000000" stroke-opacity="1" stroke-width="6" stroke-linecap="square" stroke-linejoin="bevel" transform="matrix(1,0,0,1,655.567,315.878)"
font-family="Sans" font-size="41.6667" font-weight="400" font-style="normal" 
>
<path vector-effect="none" fill-rule="evenodd" d="M4.82213,0 C4.82213,-2.66319 2.66319,-4.82213 0,-4.82213 C-2.66319,-4.82213 -4.82213,-2.66319 -4.82213,0 C-4.82213,2.66319 -2.66319,4.82213 0,4.82213 C2.66319,4.82213 4.82213,2.66319 4.82213,0 "/>
</g>

<g fill="#000000" fill-opacity="1" stroke="#000000" stroke-opacity="1" stroke-width="6" stroke-linecap="square" stroke-linejoin="bevel" transform="matrix(1,0,0,1,0,0)"
font-family="Sans" font-size="41.6667" font-weight="400" font-style="normal" 
>
</g>

<g fill="#989898" fill-opacity="1" stroke="#989898" stroke-opacity="1" stroke-width="6" stroke-linecap="square" stroke-linejoin="bevel" transform="matrix(1,0,0,1,0,0)"
font-family="Sans" font-size="41.6667" font-weight="400" font-style="normal" 
>
</g>

<g fill="#989898" fill-opacity="1" stroke="none" transform="matrix(1,0,0,1,0,0)"
font-family="Sans" font-size="41.6667" font-weight="400" font-style="normal" 
>
<path vector-effect="none" fill-rule="evenodd" d="M470.272,411.511 L447.865,478.732 L477.741,463.794 L492.679,418.98 L470.272,411.511"/>
</g>

<g fill="#989898" fill-opacity="1" stroke="#989898" stroke-opacity="1" stroke-width="6" stroke-linecap="square" stroke-linejoin="bevel" transform="matrix(1,0,0,1,0,0)"
font-family="Sans" font-size="41.6667" font-weight="400" font-style="normal" 
>
</g>

<g fill="#989898" fill-opacity="1" stroke="none" transform="matrix(1,0,0,1,0,0)"
font-family="Sans" font-size="41.6667" font-weight="400" font-style="normal" 
>
<path vector-effect="none" fill-rule="evenodd" d="M567.369,493.67 L477.741,463.794 L447.865,478.732 L582.307,523.546 L567.369,493.67"/>
</g>

<g fill="#989898" fill-opacity="1" stroke="#989898" stroke-opacity="1" stroke-width="6" stroke-linecap="square" stroke-linejoin="bevel" transform="matrix(1,0,0,1,0,0)"
font-family="Sans" font-size="41.6667" font-weight="400" font-style="normal" 
>
</g>

<g fill="#989898" fill-opacity="1" stroke="none" transform="matrix(1,0,0,1,0,0)"
font-family="Sans" font-size="41.6667" font-weight="400" font-style="normal" 
>
<path vector-effect="none" fill-rule="evenodd" d="M582.307,448.856 L567.369,493.67 L582.307,523.546 L604.714,456.325 L582.307,448.856"/>
</g>

<g fill="#989898" fill-opacity="1" stroke="#989898" stroke-opacity="1" stroke-width="6" stroke-linecap="square" stroke-linejoin="bevel" transform="matrix(1,0,0,1,0,0)"
font-family="Sans" font-size="41.6667" font-weight="400" font-style="normal" 
>
</g>

<g fill="#000000" fill-opacity="1" stroke="#000000" stroke-opacity="1" stroke-width="6" stroke-linecap="square" stroke-linejoin="bevel" transform="matrix(1,0,0,1,0,0)"
font-family="Sans" font-size="41.6667" font-weight="400" font-style="normal" 
>
</g>

<g fill="none" stroke="#000000" stroke-opacity="1" stroke-width="6" stroke-linecap="square" stroke-linejoin="bevel" transform="matrix(1,0,0,1,537.493,433.918)"
font-family="Sans" font-size="41.6667" font-weight="400" font-style="normal" 
>
<path vector-effect="none" fill-rule="evenodd" d="M9.64425,0 C9.64425,-5.32637 5.32637,-9.64425 0,-9.64425 C-5.32637,-9.64425 -9.64425,-5.32637 -9.64425,0 C-9.64425,5.32637 -5.32637,9.64425 0,9.64425 C5.32637,9.64425 9.64425,5.32637 9.64425,0 "/>
</g>

<g fill="#000000" fill-opacity="1" stroke="#000000" stroke-opacity="1" stroke-width="6" stroke-linecap="square" stroke-linejoin="bevel" transform="matrix(1,0,0,1,0,0)"
font-family="Sans" font-size="41.6667" font-weight="400" font-style="normal" 
>
</g>

<g fill="none" stroke="#000000" stroke-opacity="1" stroke-width="6" stroke-linecap="square" stroke-linejoin="bevel" transform="matrix(1,0,0,1,537.493,433.918)"
font-family="Sans" font-size="41.6667" font-weight="400" font-style="normal" 
>
<path vector-effect="none" fill-rule="evenodd" d="M4.82213,0 C4.82213,-2.66319 2.66319,-4.82213 0,-4.82213 C-2.66319,-4.82213 -4.82213,-2.66319 -4.82213,0 C-4.82213,2.66319 -2.66319,4.82213 0,4.82213 C2.66319,4.82213 4.82213,2.66319 4.82213,0 "/>
</g>

<g fill="#000000" fill-opacity="1" stroke="#000000" stroke-opacity="1" stroke-width="6" stroke-linecap="square" stroke-linejoin="bevel" transform="matrix(1,0,0,1,0,0)"
font-family="Sans" font-size="41.6667" font-weight="400" font-style="normal" 
>
</g>

<g fill="#989898" fill-opacity="1" stroke="#989898" stroke-opacity="1" stroke-width="6" stroke-linecap="square" stroke-linejoin="bevel" transform="matrix(1,0,0,1,0,0)"
font-family="Sans" font-size="41.6667" font-weight="400" font-style="normal" 
>
</g>

<g fill="#989898" fill-opacity="1" stroke="none" transform="matrix(1,0,0,1,0,0)"
font-family="Sans" font-size="41.6667" font-weight="400" font-style="normal" 
>
<path vector-effect="none" fill-rule="evenodd" d="M231.815,892.424 L217.918,961.905 L245.711,943.377 L254.975,897.056 L231.815,892.424"/>
</g>

<g fill="#989898" fill-opacity="1" stroke="#989898" stroke-opacity="1" stroke-width="6" stroke-linecap="square" stroke-linejoin="bevel" transform="matrix(1,0,0,1,0,0)"
font-family="Sans" font-size="41.6667" font-weight="400" font-style="normal" 
>
</g>

<g fill="#989898" fill-opacity="1" stroke="none" transform="matrix(1,0,0,1,0,0)"
font-family="Sans" font-size="41.6667" font-weight="400" font-style="normal" 
>
<path vector-effect="none" fill-rule="evenodd" d="M338.352,961.905 L245.711,943.377 L217.918,961.905 L356.881,989.698 L338.352,961.905"/>
</g>

<g fill="#989898" fill-opacity="1" stroke="#989898" stroke-opacity="1" stroke-width="6" stroke-linecap="square" stroke-linejoin="bevel" transform="matrix(1,0,0,1,0,0)"
font-family="Sans" font-size="41.6667" font-weight="400" font-style="normal" 
>
</g>

<g fill="#989898" fill-opacity="1" stroke="none" transform="matrix(1,0,0,1,0,0)"
font-family="Sans" font-size="41.6667" font-weight="400" font-style="normal" 
>
<path vector-effect="none" fill-rule="evenodd" d="M347.616,915.584 L338.352,961.905 L356.881,989.698 L370.777,920.216 L347.616,915.584"/>
</g>

<g fill="#989898" fill-opacity="1" stroke="#989898" stroke-opacity="1" stroke-width="6" stroke-linecap="square" stroke-linejoin="bevel" transform="matrix(1,0,0,1,0,0)"
font-family="Sans" font-size="41.6667" font-weight="400" font-style="normal" 
>
</g>

<g fill="#000000" fill-opacity="1" stroke="#000000" stroke-opacity="1" stroke-width="6" stroke-linecap="square" stroke-linejoin="bevel" transform="matrix(1,0,0,1,0,0)"
font-family="Sans" font-size="41.6667" font-weight="400" font-style="normal" 
>
</g>

<g fill="none" stroke="#000000" stroke-opacity="1" stroke-width="6" stroke-linecap="square" stroke-linejoin="bevel" transform="matrix(1,0,0,1,301.296,906.32)"
font-family="Sans" font-size="41.6667" font-weight="400" font-style="normal" 
>
<path vector-effect="none" fill-rule="evenodd" d="M9.64425,0 C9.64425,-5.32637 5.32637,-9.64425 0,-9.64425 C-5.32637,-9.64425 -9.64425,-5.32637 -9.64425,0 C-9.64425,5.32637 -5.32637,9.64425 0,9.64425 C5.32637,9.64425 9.64425,5.32637 9.64425,0 "/>
</g>

<g fill="#000000" fill-opacity="1" stroke="#000000" stroke-opacity="1" stroke-width="6" stroke-linecap="square" stroke-linejoin="bevel" transform="matrix(1,0,0,1,0,0)"
font-family="Sans" font-size="41.6667" font-weight="400" font-style="normal" 
>
</g>

<g fill="none" stroke="#000000" stroke-opacity="1" stroke-width="6" stroke-linecap="square" stroke-linejoin="bevel" transform="matrix(1,0,0,1,301.296,906.32)"
font-family="Sans" font-size="41.6667" font-weight="400" font-style="normal" 
>
<path vector-effect="none" fill-rule="evenodd" d="M4.82213,0 C4.82213,-2.66319 2.66319,-4.82213 0,-4.82213 C-2.66319,-4.82213 -4.82213,-2.66319 -4.82213,0 C-4.82213,2.66319 -2.66319,4.82213 0,4.82213 C2.66319,4.82213 4.82213,2.66319 4.82213,0 "/>
</g>

<g fill="#000000" fill-opacity="1" stroke="#000000" stroke-opacity="1" stroke-width="6" stroke-linecap="square" stroke-linejoin="bevel" transform="matrix(1,0,0,1,0,0)"
font-family="Sans" font-size="41.6667" font-weight="400" font-style="normal" 
>
<polyline fill="none" vector-effect="none" points="183.201,1496.79 183.201,315.842 " />
<polyline fill="none" vector-effect="none" points="183.201,266.49 211.694,315.842 " />
<polyline fill="none" vector-effect="none" points="211.694,315.842 183.201,315.842 " />
<polyline fill="none" vector-effect="none" points="183.201,266.49 154.708,315.842 " />
<polyline fill="none" vector-effect="none" points="154.708,315.842 183.201,315.842 " />
</g>

<g fill="#000000" fill-opacity="1" stroke="#000000" stroke-opacity="1" stroke-width="6" stroke-linecap="round" stroke-linejoin="bevel" transform="matrix(1,0,0,1,0,0)"
font-family="Sans" font-size="41.6667" font-weight="400" font-style="normal" 
>
<polyline fill="none" vector-effect="none" points="96.8705,358.301 119.628,386.595 119.628,417.349 " />
<polyline fill="none" vector-effect="none" points="119.628,386.595 141.771,358.301 " />
</g>

<g fill="#000000" fill-opacity="1" stroke="#000000" stroke-opacity="1" stroke-width="6" stroke-linecap="square" stroke-linejoin="bevel" transform="matrix(1,0,0,1,0,0)"
font-family="Sans" font-size="41.6667" font-weight="400" font-style="normal" 
>
<polyline fill="none" vector-effect="none" points="2277.58,1496.79 2228.22,1468.3 " />
<polyline fill="none" vector-effect="none" points="2228.22,1468.3 2228.22,1496.79 " />
<polyline fill="none" vector-effect="none" points="2277.58,1496.79 2228.22,1525.29 " />
<polyline fill="none" vector-effect="none" points="2228.22,1525.29 2228.22,1496.79 " />
</g>

<g fill="#000000" fill-opacity="1" stroke="#000000" stroke-opacity="1" stroke-width="6" stroke-linecap="round" stroke-linejoin="bevel" transform="matrix(1,0,0,1,0,0)"
font-family="Sans" font-size="41.6667" font-weight="400" font-style="normal" 
>
<polyline fill="none" vector-effect="none" points="2227.63,1611.85 2266.99,1552.81 " />
<polyline fill="none" vector-effect="none" points="2227.63,1552.81 2266.99,1611.85 " />
</g>

<g fill="#000000" fill-opacity="1" stroke="#000000" stroke-opacity="1" stroke-width="6" stroke-linecap="square" stroke-linejoin="bevel" transform="matrix(1,0,0,1,0,0)"
font-family="Sans" font-size="41.6667" font-weight="400" font-style="normal" 
>
<polyline fill="none" vector-effect="none" points="183.201,1496.79 2228.22,1496.79 " />
</g>

<g fill="#989898" fill-opacity="1" stroke="#989898" stroke-opacity="1" stroke-width="6" stroke-linecap="square" stroke-linejoin="bevel" transform="matrix(1,0,0,1,0,0)"
font-family="Sans" font-size="41.6667" font-weight="400" font-style="normal" 
>
</g>

<g fill="#989898" fill-opacity="1" stroke="none" transform="matrix(1,0,0,1,0,0)"
font-family="Sans" font-size="41.6667" font-weight="400" font-style="normal" 
>
<path vector-effect="none" fill-rule="evenodd" d="M351.257,650.674 L331.791,718.805 L360.99,702.583 L373.967,657.163 L351.257,650.674"/>
</g>

<g fill="#989898" fill-opacity="1" stroke="#989898" stroke-opacity="1" stroke-width="6" stroke-linecap="square" stroke-linejoin="bevel" transform="matrix(1,0,0,1,0,0)"
font-family="Sans" font-size="41.6667" font-weight="400" font-style="normal" 
>
</g>

<g fill="#989898" fill-opacity="1" stroke="none" transform="matrix(1,0,0,1,0,0)"
font-family="Sans" font-size="41.6667" font-weight="400" font-style="normal" 
>
<path vector-effect="none" fill-rule="evenodd" d="M451.831,728.538 L360.99,702.583 L331.791,718.805 L468.053,757.737 L451.831,728.538"/>
</g>

<g fill="#989898" fill-opacity="1" stroke="#989898" stroke-opacity="1" stroke-width="6" stroke-linecap="square" stroke-linejoin="bevel" transform="matrix(1,0,0,1,0,0)"
font-family="Sans" font-size="41.6667" font-weight="400" font-style="normal" 
>
</g>

<g fill="#989898" fill-opacity="1" stroke="none" transform="matrix(1,0,0,1,0,0)"
font-family="Sans" font-size="41.6667" font-weight="400" font-style="normal" 
>
<path vector-effect="none" fill-rule="evenodd" d="M464.808,683.117 L451.831,728.538 L468.053,757.737 L487.519,689.606 L464.808,683.117"/>
</g>

<g fill="#989898" fill-opacity="1" stroke="#989898" stroke-opacity="1" stroke-width="6" stroke-linecap="square" stroke-linejoin="bevel" transform="matrix(1,0,0,1,0,0)"
font-family="Sans" font-size="41.6667" font-weight="400" font-style="normal" 
>
</g>

<g fill="#000000" fill-opacity="1" stroke="#000000" stroke-opacity="1" stroke-width="6" stroke-linecap="square" stroke-linejoin="bevel" transform="matrix(1,0,0,1,0,0)"
font-family="Sans" font-size="41.6667" font-weight="400" font-style="normal" 
>
</g>

<g fill="none" stroke="#000000" stroke-opacity="1" stroke-width="6" stroke-linecap="square" stroke-linejoin="bevel" transform="matrix(1,0,0,1,419.388,670.14)"
font-family="Sans" font-size="41.6667" font-weight="400" font-style="normal" 
>
<path vector-effect="none" fill-rule="evenodd" d="M9.64425,0 C9.64425,-5.32637 5.32637,-9.64425 0,-9.64425 C-5.32637,-9.64425 -9.64425,-5.32637 -9.64425,0 C-9.64425,5.32637 -5.32637,9.64425 0,9.64425 C5.32637,9.64425 9.64425,5.32637 9.64425,0 "/>
</g>

<g fill="#000000" fill-opacity="1" stroke="#000000" stroke-opacity="1" stroke-width="6" stroke-linecap="square" stroke-linejoin="bevel" transform="matrix(1,0,0,1,0,0)"
font-family="Sans" font-size="41.6667" font-weight="400" font-style="normal" 
>
</g>

<g fill="none" stroke="#000000" stroke-opacity="1" stroke-width="6" stroke-linecap="square" stroke-linejoin="bevel" transform="matrix(1,0,0,1,419.388,670.14)"
font-family="Sans" font-size="41.6667" font-weight="400" font-style="normal" 
>
<path vector-effect="none" fill-rule="evenodd" d="M4.82213,0 C4.82213,-2.66319 2.66319,-4.82213 0,-4.82213 C-2.66319,-4.82213 -4.82213,-2.66319 -4.82213,0 C-4.82213,2.66319 -2.66319,4.82213 0,4.82213 C2.66319,4.82213 4.82213,2.66319 4.82213,0 "/>
</g>

<g fill="#000000" fill-opacity="1" stroke="#000000" stroke-opacity="1" stroke-width="6" stroke-linecap="square" stroke-linejoin="bevel" transform="matrix(1,0,0,1,0,0)"
font-family="Sans" font-size="41.6667" font-weight="400" font-style="normal" 
>
<polyline fill="none" vector-effect="none" points="301.296,906.32 419.388,670.14 " />
<polyline fill="none" vector-effect="none" points="419.388,670.14 537.493,433.918 " />
<polyline fill="none" vector-effect="none" points="537.493,433.918 655.567,315.878 " />
</g>

<g fill="#989898" fill-opacity="1" stroke="#989898" stroke-opacity="1" stroke-width="6" stroke-linecap="square" stroke-linejoin="bevel" transform="matrix(1,0,0,1,0,0)"
font-family="Sans" font-size="41.6667" font-weight="400" font-style="normal" 
>
</g>

<g fill="#989898" fill-opacity="1" stroke="none" transform="matrix(1,0,0,1,0,0)"
font-family="Sans" font-size="41.6667" font-weight="400" font-style="normal" 
>
<path vector-effect="none" fill-rule="evenodd" d="M788.922,398.193 L751.26,458.212 L783.82,450.76 L808.928,410.747 L788.922,398.193"/>
</g>

<g fill="#989898" fill-opacity="1" stroke="#989898" stroke-opacity="1" stroke-width="6" stroke-linecap="square" stroke-linejoin="bevel" transform="matrix(1,0,0,1,0,0)"
font-family="Sans" font-size="41.6667" font-weight="400" font-style="normal" 
>
</g>

<g fill="#989898" fill-opacity="1" stroke="none" transform="matrix(1,0,0,1,0,0)"
font-family="Sans" font-size="41.6667" font-weight="400" font-style="normal" 
>
<path vector-effect="none" fill-rule="evenodd" d="M863.846,500.976 L783.82,450.76 L751.26,458.212 L871.298,533.536 L863.846,500.976"/>
</g>

<g fill="#989898" fill-opacity="1" stroke="#989898" stroke-opacity="1" stroke-width="6" stroke-linecap="square" stroke-linejoin="bevel" transform="matrix(1,0,0,1,0,0)"
font-family="Sans" font-size="41.6667" font-weight="400" font-style="normal" 
>
</g>

<g fill="#989898" fill-opacity="1" stroke="none" transform="matrix(1,0,0,1,0,0)"
font-family="Sans" font-size="41.6667" font-weight="400" font-style="normal" 
>
<path vector-effect="none" fill-rule="evenodd" d="M888.954,460.963 L863.846,500.976 L871.298,533.536 L908.96,473.517 L888.954,460.963"/>
</g>

<g fill="#989898" fill-opacity="1" stroke="#989898" stroke-opacity="1" stroke-width="6" stroke-linecap="square" stroke-linejoin="bevel" transform="matrix(1,0,0,1,0,0)"
font-family="Sans" font-size="41.6667" font-weight="400" font-style="normal" 
>
</g>

<g fill="#000000" fill-opacity="1" stroke="#000000" stroke-opacity="1" stroke-width="6" stroke-linecap="square" stroke-linejoin="bevel" transform="matrix(1,0,0,1,0,0)"
font-family="Sans" font-size="41.6667" font-weight="400" font-style="normal" 
>
</g>

<g fill="none" stroke="#000000" stroke-opacity="1" stroke-width="6" stroke-linecap="square" stroke-linejoin="bevel" transform="matrix(1,0,0,1,848.941,435.855)"
font-family="Sans" font-size="41.6667" font-weight="400" font-style="normal" 
>
<path vector-effect="none" fill-rule="evenodd" d="M9.64425,0 C9.64425,-5.32637 5.32637,-9.64425 0,-9.64425 C-5.32637,-9.64425 -9.64425,-5.32637 -9.64425,0 C-9.64425,5.32637 -5.32637,9.64425 0,9.64425 C5.32637,9.64425 9.64425,5.32637 9.64425,0 "/>
</g>

<g fill="#000000" fill-opacity="1" stroke="#000000" stroke-opacity="1" stroke-width="6" stroke-linecap="square" stroke-linejoin="bevel" transform="matrix(1,0,0,1,0,0)"
font-family="Sans" font-size="41.6667" font-weight="400" font-style="normal" 
>
</g>

<g fill="none" stroke="#000000" stroke-opacity="1" stroke-width="6" stroke-linecap="square" stroke-linejoin="bevel" transform="matrix(1,0,0,1,848.941,435.855)"
font-family="Sans" font-size="41.6667" font-weight="400" font-style="normal" 
>
<path vector-effect="none" fill-rule="evenodd" d="M4.82213,0 C4.82213,-2.66319 2.66319,-4.82213 0,-4.82213 C-2.66319,-4.82213 -4.82213,-2.66319 -4.82213,0 C-4.82213,2.66319 -2.66319,4.82213 0,4.82213 C2.66319,4.82213 4.82213,2.66319 4.82213,0 "/>
</g>

<g fill="#000000" fill-opacity="1" stroke="#000000" stroke-opacity="1" stroke-width="6" stroke-linecap="square" stroke-linejoin="bevel" transform="matrix(1,0,0,1,0,0)"
font-family="Sans" font-size="41.6667" font-weight="400" font-style="normal" 
>
</g>

<g fill="#989898" fill-opacity="1" stroke="#989898" stroke-opacity="1" stroke-width="6" stroke-linecap="square" stroke-linejoin="bevel" transform="matrix(1,0,0,1,0,0)"
font-family="Sans" font-size="41.6667" font-weight="400" font-style="normal" 
>
</g>

<g fill="#989898" fill-opacity="1" stroke="none" transform="matrix(1,0,0,1,0,0)"
font-family="Sans" font-size="41.6667" font-weight="400" font-style="normal" 
>
<path vector-effect="none" fill-rule="evenodd" d="M562.35,447.792 L534.079,512.766 L565.161,500.531 L584.007,457.216 L562.35,447.792"/>
</g>

<g fill="#989898" fill-opacity="1" stroke="#989898" stroke-opacity="1" stroke-width="6" stroke-linecap="square" stroke-linejoin="bevel" transform="matrix(1,0,0,1,0,0)"
font-family="Sans" font-size="41.6667" font-weight="400" font-style="normal" 
>
</g>

<g fill="#989898" fill-opacity="1" stroke="none" transform="matrix(1,0,0,1,0,0)"
font-family="Sans" font-size="41.6667" font-weight="400" font-style="normal" 
>
<path vector-effect="none" fill-rule="evenodd" d="M651.792,538.224 L565.161,500.531 L534.079,512.766 L664.026,569.306 L651.792,538.224"/>
</g>

<g fill="#989898" fill-opacity="1" stroke="#989898" stroke-opacity="1" stroke-width="6" stroke-linecap="square" stroke-linejoin="bevel" transform="matrix(1,0,0,1,0,0)"
font-family="Sans" font-size="41.6667" font-weight="400" font-style="normal" 
>
</g>

<g fill="#989898" fill-opacity="1" stroke="none" transform="matrix(1,0,0,1,0,0)"
font-family="Sans" font-size="41.6667" font-weight="400" font-style="normal" 
>
<path vector-effect="none" fill-rule="evenodd" d="M670.638,494.909 L651.792,538.224 L664.026,569.306 L692.296,504.332 L670.638,494.909"/>
</g>

<g fill="#989898" fill-opacity="1" stroke="#989898" stroke-opacity="1" stroke-width="6" stroke-linecap="square" stroke-linejoin="bevel" transform="matrix(1,0,0,1,0,0)"
font-family="Sans" font-size="41.6667" font-weight="400" font-style="normal" 
>
</g>

<g fill="#000000" fill-opacity="1" stroke="#000000" stroke-opacity="1" stroke-width="6" stroke-linecap="square" stroke-linejoin="bevel" transform="matrix(1,0,0,1,0,0)"
font-family="Sans" font-size="41.6667" font-weight="400" font-style="normal" 
>
</g>

<g fill="none" stroke="#000000" stroke-opacity="1" stroke-width="6" stroke-linecap="square" stroke-linejoin="bevel" transform="matrix(1,0,0,1,627.323,476.062)"
font-family="Sans" font-size="41.6667" font-weight="400" font-style="normal" 
>
<path vector-effect="none" fill-rule="evenodd" d="M9.64425,0 C9.64425,-5.32637 5.32637,-9.64425 0,-9.64425 C-5.32637,-9.64425 -9.64425,-5.32637 -9.64425,0 C-9.64425,5.32637 -5.32637,9.64425 0,9.64425 C5.32637,9.64425 9.64425,5.32637 9.64425,0 "/>
</g>

<g fill="#000000" fill-opacity="1" stroke="#000000" stroke-opacity="1" stroke-width="6" stroke-linecap="square" stroke-linejoin="bevel" transform="matrix(1,0,0,1,0,0)"
font-family="Sans" font-size="41.6667" font-weight="400" font-style="normal" 
>
</g>

<g fill="none" stroke="#000000" stroke-opacity="1" stroke-width="6" stroke-linecap="square" stroke-linejoin="bevel" transform="matrix(1,0,0,1,627.323,476.062)"
font-family="Sans" font-size="41.6667" font-weight="400" font-style="normal" 
>
<path vector-effect="none" fill-rule="evenodd" d="M4.82213,0 C4.82213,-2.66319 2.66319,-4.82213 0,-4.82213 C-2.66319,-4.82213 -4.82213,-2.66319 -4.82213,0 C-4.82213,2.66319 -2.66319,4.82213 0,4.82213 C2.66319,4.82213 4.82213,2.66319 4.82213,0 "/>
</g>

<g fill="#000000" fill-opacity="1" stroke="#000000" stroke-opacity="1" stroke-width="6" stroke-linecap="square" stroke-linejoin="bevel" transform="matrix(1,0,0,1,0,0)"
font-family="Sans" font-size="41.6667" font-weight="400" font-style="normal" 
>
</g>

<g fill="#989898" fill-opacity="1" stroke="#989898" stroke-opacity="1" stroke-width="6" stroke-linecap="square" stroke-linejoin="bevel" transform="matrix(1,0,0,1,0,0)"
font-family="Sans" font-size="41.6667" font-weight="400" font-style="normal" 
>
</g>

<g fill="#989898" fill-opacity="1" stroke="none" transform="matrix(1,0,0,1,0,0)"
font-family="Sans" font-size="41.6667" font-weight="400" font-style="normal" 
>
<path vector-effect="none" fill-rule="evenodd" d="M231.815,892.424 L217.918,961.905 L245.711,943.377 L254.975,897.056 L231.815,892.424"/>
</g>

<g fill="#989898" fill-opacity="1" stroke="#989898" stroke-opacity="1" stroke-width="6" stroke-linecap="square" stroke-linejoin="bevel" transform="matrix(1,0,0,1,0,0)"
font-family="Sans" font-size="41.6667" font-weight="400" font-style="normal" 
>
</g>

<g fill="#989898" fill-opacity="1" stroke="none" transform="matrix(1,0,0,1,0,0)"
font-family="Sans" font-size="41.6667" font-weight="400" font-style="normal" 
>
<path vector-effect="none" fill-rule="evenodd" d="M338.352,961.905 L245.711,943.377 L217.918,961.905 L356.881,989.698 L338.352,961.905"/>
</g>

<g fill="#989898" fill-opacity="1" stroke="#989898" stroke-opacity="1" stroke-width="6" stroke-linecap="square" stroke-linejoin="bevel" transform="matrix(1,0,0,1,0,0)"
font-family="Sans" font-size="41.6667" font-weight="400" font-style="normal" 
>
</g>

<g fill="#989898" fill-opacity="1" stroke="none" transform="matrix(1,0,0,1,0,0)"
font-family="Sans" font-size="41.6667" font-weight="400" font-style="normal" 
>
<path vector-effect="none" fill-rule="evenodd" d="M347.616,915.584 L338.352,961.905 L356.881,989.698 L370.777,920.216 L347.616,915.584"/>
</g>

<g fill="#989898" fill-opacity="1" stroke="#989898" stroke-opacity="1" stroke-width="6" stroke-linecap="square" stroke-linejoin="bevel" transform="matrix(1,0,0,1,0,0)"
font-family="Sans" font-size="41.6667" font-weight="400" font-style="normal" 
>
</g>

<g fill="#000000" fill-opacity="1" stroke="#000000" stroke-opacity="1" stroke-width="6" stroke-linecap="square" stroke-linejoin="bevel" transform="matrix(1,0,0,1,0,0)"
font-family="Sans" font-size="41.6667" font-weight="400" font-style="normal" 
>
</g>

<g fill="none" stroke="#000000" stroke-opacity="1" stroke-width="6" stroke-linecap="square" stroke-linejoin="bevel" transform="matrix(1,0,0,1,301.296,906.32)"
font-family="Sans" font-size="41.6667" font-weight="400" font-style="normal" 
>
<path vector-effect="none" fill-rule="evenodd" d="M9.64425,0 C9.64425,-5.32637 5.32637,-9.64425 0,-9.64425 C-5.32637,-9.64425 -9.64425,-5.32637 -9.64425,0 C-9.64425,5.32637 -5.32637,9.64425 0,9.64425 C5.32637,9.64425 9.64425,5.32637 9.64425,0 "/>
</g>

<g fill="#000000" fill-opacity="1" stroke="#000000" stroke-opacity="1" stroke-width="6" stroke-linecap="square" stroke-linejoin="bevel" transform="matrix(1,0,0,1,0,0)"
font-family="Sans" font-size="41.6667" font-weight="400" font-style="normal" 
>
</g>

<g fill="none" stroke="#000000" stroke-opacity="1" stroke-width="6" stroke-linecap="square" stroke-linejoin="bevel" transform="matrix(1,0,0,1,301.296,906.32)"
font-family="Sans" font-size="41.6667" font-weight="400" font-style="normal" 
>
<path vector-effect="none" fill-rule="evenodd" d="M4.82213,0 C4.82213,-2.66319 2.66319,-4.82213 0,-4.82213 C-2.66319,-4.82213 -4.82213,-2.66319 -4.82213,0 C-4.82213,2.66319 -2.66319,4.82213 0,4.82213 C2.66319,4.82213 4.82213,2.66319 4.82213,0 "/>
</g>

<g fill="#000000" fill-opacity="1" stroke="#000000" stroke-opacity="1" stroke-width="6" stroke-linecap="square" stroke-linejoin="bevel" transform="matrix(1,0,0,1,0,0)"
font-family="Sans" font-size="41.6667" font-weight="400" font-style="normal" 
>
</g>

<g fill="#989898" fill-opacity="1" stroke="#989898" stroke-opacity="1" stroke-width="6" stroke-linecap="square" stroke-linejoin="bevel" transform="matrix(1,0,0,1,0,0)"
font-family="Sans" font-size="41.6667" font-weight="400" font-style="normal" 
>
</g>

<g fill="#989898" fill-opacity="1" stroke="none" transform="matrix(1,0,0,1,0,0)"
font-family="Sans" font-size="41.6667" font-weight="400" font-style="normal" 
>
<path vector-effect="none" fill-rule="evenodd" d="M369.386,656.286 L348.42,723.97 L377.97,708.397 L391.947,663.274 L369.386,656.286"/>
</g>

<g fill="#989898" fill-opacity="1" stroke="#989898" stroke-opacity="1" stroke-width="6" stroke-linecap="square" stroke-linejoin="bevel" transform="matrix(1,0,0,1,0,0)"
font-family="Sans" font-size="41.6667" font-weight="400" font-style="normal" 
>
</g>

<g fill="#989898" fill-opacity="1" stroke="none" transform="matrix(1,0,0,1,0,0)"
font-family="Sans" font-size="41.6667" font-weight="400" font-style="normal" 
>
<path vector-effect="none" fill-rule="evenodd" d="M468.215,736.353 L377.97,708.397 L348.42,723.97 L483.788,765.903 L468.215,736.353"/>
</g>

<g fill="#989898" fill-opacity="1" stroke="#989898" stroke-opacity="1" stroke-width="6" stroke-linecap="square" stroke-linejoin="bevel" transform="matrix(1,0,0,1,0,0)"
font-family="Sans" font-size="41.6667" font-weight="400" font-style="normal" 
>
</g>

<g fill="#989898" fill-opacity="1" stroke="none" transform="matrix(1,0,0,1,0,0)"
font-family="Sans" font-size="41.6667" font-weight="400" font-style="normal" 
>
<path vector-effect="none" fill-rule="evenodd" d="M482.193,691.23 L468.215,736.353 L483.788,765.903 L504.754,698.219 L482.193,691.23"/>
</g>

<g fill="#989898" fill-opacity="1" stroke="#989898" stroke-opacity="1" stroke-width="6" stroke-linecap="square" stroke-linejoin="bevel" transform="matrix(1,0,0,1,0,0)"
font-family="Sans" font-size="41.6667" font-weight="400" font-style="normal" 
>
</g>

<g fill="#000000" fill-opacity="1" stroke="#000000" stroke-opacity="1" stroke-width="6" stroke-linecap="square" stroke-linejoin="bevel" transform="matrix(1,0,0,1,0,0)"
font-family="Sans" font-size="41.6667" font-weight="400" font-style="normal" 
>
</g>

<g fill="none" stroke="#000000" stroke-opacity="1" stroke-width="6" stroke-linecap="square" stroke-linejoin="bevel" transform="matrix(1,0,0,1,437.07,677.252)"
font-family="Sans" font-size="41.6667" font-weight="400" font-style="normal" 
>
<path vector-effect="none" fill-rule="evenodd" d="M9.64425,0 C9.64425,-5.32637 5.32637,-9.64425 0,-9.64425 C-5.32637,-9.64425 -9.64425,-5.32637 -9.64425,0 C-9.64425,5.32637 -5.32637,9.64425 0,9.64425 C5.32637,9.64425 9.64425,5.32637 9.64425,0 "/>
</g>

<g fill="#000000" fill-opacity="1" stroke="#000000" stroke-opacity="1" stroke-width="6" stroke-linecap="square" stroke-linejoin="bevel" transform="matrix(1,0,0,1,0,0)"
font-family="Sans" font-size="41.6667" font-weight="400" font-style="normal" 
>
</g>

<g fill="none" stroke="#000000" stroke-opacity="1" stroke-width="6" stroke-linecap="square" stroke-linejoin="bevel" transform="matrix(1,0,0,1,437.07,677.252)"
font-family="Sans" font-size="41.6667" font-weight="400" font-style="normal" 
>
<path vector-effect="none" fill-rule="evenodd" d="M4.82213,0 C4.82213,-2.66319 2.66319,-4.82213 0,-4.82213 C-2.66319,-4.82213 -4.82213,-2.66319 -4.82213,0 C-4.82213,2.66319 -2.66319,4.82213 0,4.82213 C2.66319,4.82213 4.82213,2.66319 4.82213,0 "/>
</g>

<g fill="#000000" fill-opacity="1" stroke="#000000" stroke-opacity="1" stroke-width="6" stroke-linecap="square" stroke-linejoin="bevel" transform="matrix(1,0,0,1,0,0)"
font-family="Sans" font-size="41.6667" font-weight="400" font-style="normal" 
>
<polyline fill="none" vector-effect="none" points="301.296,906.32 437.07,677.252 " />
<polyline fill="none" vector-effect="none" points="437.07,677.252 627.323,476.062 " />
<polyline fill="none" vector-effect="none" points="627.323,476.062 848.941,435.855 " />
</g>

<g fill="none" stroke="#000000" stroke-opacity="1" stroke-width="1" stroke-linecap="square" stroke-linejoin="bevel" transform="matrix(1,0,0,1,0,0)"
font-family="Sans" font-size="41.6667" font-weight="400" font-style="normal" 
>
</g>

<g fill="#000000" fill-opacity="1" stroke="#000000" stroke-opacity="1" stroke-width="1" stroke-linecap="butt" stroke-linejoin="miter" stroke-miterlimit="2" transform="matrix(1,0,0,1,0,0)"
font-family="Sans" font-size="41.6667" font-weight="400" font-style="normal" 
>
</g>

<g fill="#000000" fill-opacity="1" stroke="#000000" stroke-opacity="1" stroke-width="1" stroke-linecap="butt" stroke-linejoin="miter" stroke-miterlimit="2" transform="matrix(1,0,0,1,0,0)"
font-family="Sans" font-size="41.6667" font-weight="400" font-style="normal" 
>
</g>

<g fill="#000000" fill-opacity="1" stroke="#000000" stroke-opacity="1" stroke-width="1" stroke-linecap="square" stroke-linejoin="bevel" transform="matrix(1,0,0,1,0,0)"
font-family="Sans" font-size="41.6667" font-weight="400" font-style="normal" 
>
<polyline fill="none" vector-effect="non-scaling-stroke" points="9.44762,1738.46 9.44762,14.2667 2465.83,14.2667 2465.83,1738.46 9.44762,1738.46 " />
</g>

<g fill="none" stroke="#000000" stroke-opacity="1" stroke-width="1" stroke-linecap="square" stroke-linejoin="bevel" transform="matrix(1,0,0,1,0,0)"
font-family="Sans" font-size="41.6667" font-weight="400" font-style="normal" 
>
</g>
</g>
</svg>
