<?xml version="1.0" encoding="UTF-8" standalone="no"?>
<svg width="209.973mm" height="147.997mm"
 viewBox="0 0 2480 1748"
 xmlns="http://www.w3.org/2000/svg" xmlns:xlink="http://www.w3.org/1999/xlink"  version="1.2" baseProfile="tiny">
<title>Qt SVG Document</title>
<desc>Generated with Qt</desc>
<defs>
</defs>
<g fill="none" stroke="black" stroke-width="1" fill-rule="evenodd" stroke-linecap="square" stroke-linejoin="bevel" >

<g fill="#ffffff" fill-opacity="1" stroke="none" transform="matrix(1,0,0,1,0,0)"
font-family="Sans" font-size="41.6667" font-weight="400" font-style="normal" 
>
<path vector-effect="none" fill-rule="evenodd" d="M0,0 L2480,0 L2480,1748 L0,1748 L0,0"/>
</g>

<g fill="none" stroke="#000000" stroke-opacity="1" stroke-width="1" stroke-linecap="square" stroke-linejoin="bevel" transform="matrix(1,0,0,1,0,0)"
font-family="Sans" font-size="41.6667" font-weight="400" font-style="normal" 
>
</g>

<g fill="#000000" fill-opacity="1" stroke="#000000" stroke-opacity="1" stroke-width="1" stroke-linecap="butt" stroke-linejoin="miter" stroke-miterlimit="2" transform="matrix(1,0,0,1,0,0)"
font-family="Sans" font-size="41.6667" font-weight="400" font-style="normal" 
>
</g>

<g fill="#000000" fill-opacity="1" stroke="#000000" stroke-opacity="1" stroke-width="1" stroke-linecap="butt" stroke-linejoin="miter" stroke-miterlimit="2" transform="matrix(1,0,0,1,0,0)"
font-family="Sans" font-size="41.6667" font-weight="400" font-style="normal" 
>
</g>

<g fill="#000000" fill-opacity="1" stroke="#000000" stroke-opacity="1" stroke-width="6" stroke-linecap="square" stroke-linejoin="bevel" transform="matrix(1,0,0,1,0,0)"
font-family="Sans" font-size="41.6667" font-weight="400" font-style="normal" 
>
<polyline fill="none" vector-effect="none" points="8.44762,1566.33 2466.83,1566.33 " />
</g>

<g fill="#0000ff" fill-opacity="1" stroke="#0000ff" stroke-opacity="1" stroke-width="6" stroke-linecap="square" stroke-linejoin="bevel" transform="matrix(1,0,0,1,0,0)"
font-family="Sans" font-size="41.6667" font-weight="400" font-style="normal" 
>
<polyline fill="none" vector-effect="none" points="1135.71,1566.28 1120.73,1206.65 " />
<polyline fill="none" vector-effect="none" points="1120.73,1206.65 1075.77,848.764 " />
<polyline fill="none" vector-effect="none" points="1075.77,848.764 1001.32,496.6 " />
</g>

<g fill="#000000" fill-opacity="1" stroke="#000000" stroke-opacity="1" stroke-width="6" stroke-linecap="square" stroke-linejoin="bevel" transform="matrix(1,0,0,1,0,0)"
font-family="Sans" font-size="41.6667" font-weight="400" font-style="normal" 
>
<polyline fill="none" vector-effect="none" points="1135.71,1566.28 1135.71,1205.89 " />
<polyline fill="none" vector-effect="none" points="1135.71,1205.89 1135.71,845.489 " />
<polyline fill="none" vector-effect="none" points="1135.71,845.489 1135.71,485.09 " />
</g>

<g fill="#ff0000" fill-opacity="1" stroke="#ff0000" stroke-opacity="1" stroke-width="6" stroke-linecap="square" stroke-linejoin="bevel" transform="matrix(1,0,0,1,0,0)"
font-family="Sans" font-size="41.6667" font-weight="400" font-style="normal" 
>
<polyline fill="none" vector-effect="none" points="1135.71,1566.28 1165.91,1210.04 " />
<polyline fill="none" vector-effect="none" points="1165.91,1210.04 1166.13,848.756 " />
<polyline fill="none" vector-effect="none" points="1166.13,848.756 1135.74,485 " />
</g>

<g fill="#000000" fill-opacity="1" stroke="#000000" stroke-opacity="1" stroke-width="6" stroke-linecap="square" stroke-linejoin="bevel" transform="matrix(1,0,0,1,0,0)"
font-family="Sans" font-size="41.6667" font-weight="400" font-style="normal" 
>
</g>

<g fill="none" stroke="#000000" stroke-opacity="1" stroke-width="6" stroke-linecap="square" stroke-linejoin="bevel" transform="matrix(1,0,0,1,1135.74,485)"
font-family="Sans" font-size="41.6667" font-weight="400" font-style="normal" 
>
<path vector-effect="none" fill-rule="evenodd" d="M29.4319,0 C29.4319,-16.2548 16.2548,-29.4319 0,-29.4319 C-16.2548,-29.4319 -29.4319,-16.2548 -29.4319,0 C-29.4319,16.2548 -16.2548,29.4319 0,29.4319 C16.2548,29.4319 29.4319,16.2548 29.4319,0 "/>
</g>

<g fill="#000000" fill-opacity="1" stroke="#000000" stroke-opacity="1" stroke-width="6" stroke-linecap="square" stroke-linejoin="bevel" transform="matrix(1,0,0,1,0,0)"
font-family="Sans" font-size="41.6667" font-weight="400" font-style="normal" 
>
</g>

<g fill="none" stroke="#000000" stroke-opacity="1" stroke-width="6" stroke-linecap="square" stroke-linejoin="bevel" transform="matrix(1,0,0,1,1135.74,485)"
font-family="Sans" font-size="41.6667" font-weight="400" font-style="normal" 
>
<path vector-effect="none" fill-rule="evenodd" d="M14.716,0 C14.716,-8.1274 8.1274,-14.716 0,-14.716 C-8.1274,-14.716 -14.716,-8.1274 -14.716,0 C-14.716,8.1274 -8.1274,14.716 0,14.716 C8.1274,14.716 14.716,8.1274 14.716,0 "/>
</g>

<g fill="#000000" fill-opacity="1" stroke="#000000" stroke-opacity="1" stroke-width="6" stroke-linecap="square" stroke-linejoin="bevel" transform="matrix(1,0,0,1,0,0)"
font-family="Sans" font-size="41.6667" font-weight="400" font-style="normal" 
>
</g>

<g fill="none" stroke="#000000" stroke-opacity="1" stroke-width="6" stroke-linecap="square" stroke-linejoin="bevel" transform="matrix(1,0,0,1,1001.32,496.6)"
font-family="Sans" font-size="41.6667" font-weight="400" font-style="normal" 
>
<path vector-effect="none" fill-rule="evenodd" d="M29.4319,0 C29.4319,-16.2548 16.2548,-29.4319 0,-29.4319 C-16.2548,-29.4319 -29.4319,-16.2548 -29.4319,0 C-29.4319,16.2548 -16.2548,29.4319 0,29.4319 C16.2548,29.4319 29.4319,16.2548 29.4319,0 "/>
</g>

<g fill="#000000" fill-opacity="1" stroke="#000000" stroke-opacity="1" stroke-width="6" stroke-linecap="square" stroke-linejoin="bevel" transform="matrix(1,0,0,1,0,0)"
font-family="Sans" font-size="41.6667" font-weight="400" font-style="normal" 
>
</g>

<g fill="none" stroke="#000000" stroke-opacity="1" stroke-width="6" stroke-linecap="square" stroke-linejoin="bevel" transform="matrix(1,0,0,1,1001.32,496.6)"
font-family="Sans" font-size="41.6667" font-weight="400" font-style="normal" 
>
<path vector-effect="none" fill-rule="evenodd" d="M14.716,0 C14.716,-8.1274 8.1274,-14.716 0,-14.716 C-8.1274,-14.716 -14.716,-8.1274 -14.716,0 C-14.716,8.1274 -8.1274,14.716 0,14.716 C8.1274,14.716 14.716,8.1274 14.716,0 "/>
</g>

<g fill="#000000" fill-opacity="1" stroke="#000000" stroke-opacity="1" stroke-width="6" stroke-linecap="square" stroke-linejoin="bevel" transform="matrix(1,0,0,1,0,0)"
font-family="Sans" font-size="41.6667" font-weight="400" font-style="normal" 
>
</g>

<g fill="none" stroke="#000000" stroke-opacity="1" stroke-width="6" stroke-linecap="square" stroke-linejoin="bevel" transform="matrix(1,0,0,1,1135.71,1566.28)"
font-family="Sans" font-size="41.6667" font-weight="400" font-style="normal" 
>
<path vector-effect="none" fill-rule="evenodd" d="M29.4319,0 C29.4319,-16.2548 16.2548,-29.4319 0,-29.4319 C-16.2548,-29.4319 -29.4319,-16.2548 -29.4319,0 C-29.4319,16.2548 -16.2548,29.4319 0,29.4319 C16.2548,29.4319 29.4319,16.2548 29.4319,0 "/>
</g>

<g fill="#000000" fill-opacity="1" stroke="#000000" stroke-opacity="1" stroke-width="6" stroke-linecap="square" stroke-linejoin="bevel" transform="matrix(1,0,0,1,0,0)"
font-family="Sans" font-size="41.6667" font-weight="400" font-style="normal" 
>
</g>

<g fill="none" stroke="#000000" stroke-opacity="1" stroke-width="6" stroke-linecap="square" stroke-linejoin="bevel" transform="matrix(1,0,0,1,1135.71,1566.28)"
font-family="Sans" font-size="41.6667" font-weight="400" font-style="normal" 
>
<path vector-effect="none" fill-rule="evenodd" d="M14.716,0 C14.716,-8.1274 8.1274,-14.716 0,-14.716 C-8.1274,-14.716 -14.716,-8.1274 -14.716,0 C-14.716,8.1274 -8.1274,14.716 0,14.716 C8.1274,14.716 14.716,8.1274 14.716,0 "/>
</g>

<g fill="#000000" fill-opacity="1" stroke="#000000" stroke-opacity="1" stroke-width="6" stroke-linecap="square" stroke-linejoin="bevel" transform="matrix(1,0,0,1,0,0)"
font-family="Sans" font-size="41.6667" font-weight="400" font-style="normal" 
>
</g>

<g fill="#000000" fill-opacity="1" stroke="#000000" stroke-opacity="1" stroke-width="6" stroke-linecap="round" stroke-linejoin="bevel" transform="matrix(1,0,0,1,0,0)"
font-family="Sans" font-size="41.6667" font-weight="400" font-style="normal" 
>
<polyline fill="none" vector-effect="none" points="1098.29,172.715 1115.18,165.207 1141.46,138.928 1141.46,319.127 " />
</g>

<g fill="#0000ff" fill-opacity="1" stroke="#0000ff" stroke-opacity="1" stroke-width="6" stroke-linecap="round" stroke-linejoin="bevel" transform="matrix(1,0,0,1,0,0)"
font-family="Sans" font-size="41.6667" font-weight="400" font-style="normal" 
>
<polyline fill="none" vector-effect="none" points="764.507,460.383 858.36,460.383 807.68,529.834 833.959,529.834 850.852,537.343 858.36,546.728 867.746,571.13 867.746,589.901 858.36,614.303 841.467,631.196 817.065,640.582 790.786,640.582 764.507,631.196 756.999,623.688 747.613,606.794 " />
</g>

<g fill="#ff0000" fill-opacity="1" stroke="#ff0000" stroke-opacity="1" stroke-width="6" stroke-linecap="round" stroke-linejoin="bevel" transform="matrix(1,0,0,1,0,0)"
font-family="Sans" font-size="41.6667" font-weight="400" font-style="normal" 
>
<polyline fill="none" vector-effect="none" points="1285.05,962.028 1285.05,952.642 1292.56,935.749 1301.94,928.241 1318.83,918.855 1352.62,918.855 1369.52,928.241 1378.9,935.749 1386.41,952.642 1386.41,969.536 1378.9,988.307 1362.01,1012.71 1275.66,1099.05 1395.79,1099.05 " />
</g>

<g fill="#ff0000" fill-opacity="1" stroke="#ff0000" stroke-opacity="1" stroke-width="6" stroke-linecap="square" stroke-linejoin="bevel" transform="matrix(1,0,0,1,0,0)"
font-family="Sans" font-size="41.6667" font-weight="400" font-style="normal" 
>
</g>

<g fill="none" stroke="#ff0000" stroke-opacity="1" stroke-width="6" stroke-linecap="square" stroke-linejoin="bevel" transform="matrix(1,0,0,1,1166.13,848.756)"
font-family="Sans" font-size="41.6667" font-weight="400" font-style="normal" 
>
<path vector-effect="none" fill-rule="evenodd" d="M14.716,0 C14.716,-8.1274 8.1274,-14.716 0,-14.716 C-8.1274,-14.716 -14.716,-8.1274 -14.716,0 C-14.716,8.1274 -8.1274,14.716 0,14.716 C8.1274,14.716 14.716,8.1274 14.716,0 "/>
</g>

<g fill="#ff0000" fill-opacity="1" stroke="#ff0000" stroke-opacity="1" stroke-width="6" stroke-linecap="square" stroke-linejoin="bevel" transform="matrix(1,0,0,1,0,0)"
font-family="Sans" font-size="41.6667" font-weight="400" font-style="normal" 
>
</g>

<g fill="#000000" fill-opacity="1" stroke="#000000" stroke-opacity="1" stroke-width="6" stroke-linecap="square" stroke-linejoin="bevel" transform="matrix(1,0,0,1,0,0)"
font-family="Sans" font-size="41.6667" font-weight="400" font-style="normal" 
>
</g>

<g fill="none" stroke="#000000" stroke-opacity="1" stroke-width="6" stroke-linecap="square" stroke-linejoin="bevel" transform="matrix(1,0,0,1,1135.71,845.489)"
font-family="Sans" font-size="41.6667" font-weight="400" font-style="normal" 
>
<path vector-effect="none" fill-rule="evenodd" d="M14.716,0 C14.716,-8.1274 8.1274,-14.716 0,-14.716 C-8.1274,-14.716 -14.716,-8.1274 -14.716,0 C-14.716,8.1274 -8.1274,14.716 0,14.716 C8.1274,14.716 14.716,8.1274 14.716,0 "/>
</g>

<g fill="#000000" fill-opacity="1" stroke="#000000" stroke-opacity="1" stroke-width="6" stroke-linecap="square" stroke-linejoin="bevel" transform="matrix(1,0,0,1,0,0)"
font-family="Sans" font-size="41.6667" font-weight="400" font-style="normal" 
>
</g>

<g fill="#0000ff" fill-opacity="1" stroke="#0000ff" stroke-opacity="1" stroke-width="6" stroke-linecap="square" stroke-linejoin="bevel" transform="matrix(1,0,0,1,0,0)"
font-family="Sans" font-size="41.6667" font-weight="400" font-style="normal" 
>
</g>

<g fill="none" stroke="#0000ff" stroke-opacity="1" stroke-width="6" stroke-linecap="square" stroke-linejoin="bevel" transform="matrix(1,0,0,1,1075.77,848.764)"
font-family="Sans" font-size="41.6667" font-weight="400" font-style="normal" 
>
<path vector-effect="none" fill-rule="evenodd" d="M14.716,0 C14.716,-8.1274 8.1274,-14.716 0,-14.716 C-8.1274,-14.716 -14.716,-8.1274 -14.716,0 C-14.716,8.1274 -8.1274,14.716 0,14.716 C8.1274,14.716 14.716,8.1274 14.716,0 "/>
</g>

<g fill="#0000ff" fill-opacity="1" stroke="#0000ff" stroke-opacity="1" stroke-width="6" stroke-linecap="square" stroke-linejoin="bevel" transform="matrix(1,0,0,1,0,0)"
font-family="Sans" font-size="41.6667" font-weight="400" font-style="normal" 
>
</g>

<g fill="#ff0000" fill-opacity="1" stroke="#ff0000" stroke-opacity="1" stroke-width="6" stroke-linecap="square" stroke-linejoin="bevel" transform="matrix(1,0,0,1,0,0)"
font-family="Sans" font-size="41.6667" font-weight="400" font-style="normal" 
>
</g>

<g fill="none" stroke="#ff0000" stroke-opacity="1" stroke-width="6" stroke-linecap="square" stroke-linejoin="bevel" transform="matrix(1,0,0,1,1165.91,1210.04)"
font-family="Sans" font-size="41.6667" font-weight="400" font-style="normal" 
>
<path vector-effect="none" fill-rule="evenodd" d="M14.716,0 C14.716,-8.1274 8.1274,-14.716 0,-14.716 C-8.1274,-14.716 -14.716,-8.1274 -14.716,0 C-14.716,8.1274 -8.1274,14.716 0,14.716 C8.1274,14.716 14.716,8.1274 14.716,0 "/>
</g>

<g fill="#ff0000" fill-opacity="1" stroke="#ff0000" stroke-opacity="1" stroke-width="6" stroke-linecap="square" stroke-linejoin="bevel" transform="matrix(1,0,0,1,0,0)"
font-family="Sans" font-size="41.6667" font-weight="400" font-style="normal" 
>
</g>

<g fill="#000000" fill-opacity="1" stroke="#000000" stroke-opacity="1" stroke-width="6" stroke-linecap="square" stroke-linejoin="bevel" transform="matrix(1,0,0,1,0,0)"
font-family="Sans" font-size="41.6667" font-weight="400" font-style="normal" 
>
</g>

<g fill="none" stroke="#000000" stroke-opacity="1" stroke-width="6" stroke-linecap="square" stroke-linejoin="bevel" transform="matrix(1,0,0,1,1135.71,1205.89)"
font-family="Sans" font-size="41.6667" font-weight="400" font-style="normal" 
>
<path vector-effect="none" fill-rule="evenodd" d="M14.716,0 C14.716,-8.1274 8.1274,-14.716 0,-14.716 C-8.1274,-14.716 -14.716,-8.1274 -14.716,0 C-14.716,8.1274 -8.1274,14.716 0,14.716 C8.1274,14.716 14.716,8.1274 14.716,0 "/>
</g>

<g fill="#000000" fill-opacity="1" stroke="#000000" stroke-opacity="1" stroke-width="6" stroke-linecap="square" stroke-linejoin="bevel" transform="matrix(1,0,0,1,0,0)"
font-family="Sans" font-size="41.6667" font-weight="400" font-style="normal" 
>
</g>

<g fill="#0000ff" fill-opacity="1" stroke="#0000ff" stroke-opacity="1" stroke-width="6" stroke-linecap="square" stroke-linejoin="bevel" transform="matrix(1,0,0,1,0,0)"
font-family="Sans" font-size="41.6667" font-weight="400" font-style="normal" 
>
</g>

<g fill="none" stroke="#0000ff" stroke-opacity="1" stroke-width="6" stroke-linecap="square" stroke-linejoin="bevel" transform="matrix(1,0,0,1,1120.73,1206.65)"
font-family="Sans" font-size="41.6667" font-weight="400" font-style="normal" 
>
<path vector-effect="none" fill-rule="evenodd" d="M14.716,0 C14.716,-8.1274 8.1274,-14.716 0,-14.716 C-8.1274,-14.716 -14.716,-8.1274 -14.716,0 C-14.716,8.1274 -8.1274,14.716 0,14.716 C8.1274,14.716 14.716,8.1274 14.716,0 "/>
</g>

<g fill="#0000ff" fill-opacity="1" stroke="#0000ff" stroke-opacity="1" stroke-width="6" stroke-linecap="square" stroke-linejoin="bevel" transform="matrix(1,0,0,1,0,0)"
font-family="Sans" font-size="41.6667" font-weight="400" font-style="normal" 
>
</g>

<g fill="none" stroke="#000000" stroke-opacity="1" stroke-width="1" stroke-linecap="square" stroke-linejoin="bevel" transform="matrix(1,0,0,1,0,0)"
font-family="Sans" font-size="41.6667" font-weight="400" font-style="normal" 
>
</g>

<g fill="#000000" fill-opacity="1" stroke="#000000" stroke-opacity="1" stroke-width="1" stroke-linecap="butt" stroke-linejoin="miter" stroke-miterlimit="2" transform="matrix(1,0,0,1,0,0)"
font-family="Sans" font-size="41.6667" font-weight="400" font-style="normal" 
>
</g>

<g fill="#000000" fill-opacity="1" stroke="#000000" stroke-opacity="1" stroke-width="1" stroke-linecap="butt" stroke-linejoin="miter" stroke-miterlimit="2" transform="matrix(1,0,0,1,0,0)"
font-family="Sans" font-size="41.6667" font-weight="400" font-style="normal" 
>
</g>

<g fill="#000000" fill-opacity="1" stroke="#000000" stroke-opacity="1" stroke-width="1" stroke-linecap="square" stroke-linejoin="bevel" transform="matrix(1,0,0,1,0,0)"
font-family="Sans" font-size="41.6667" font-weight="400" font-style="normal" 
>
<polyline fill="none" vector-effect="non-scaling-stroke" points="9.44762,1738.46 9.44762,14.2667 2465.83,14.2667 2465.83,1738.46 9.44762,1738.46 " />
</g>

<g fill="none" stroke="#000000" stroke-opacity="1" stroke-width="1" stroke-linecap="square" stroke-linejoin="bevel" transform="matrix(1,0,0,1,0,0)"
font-family="Sans" font-size="41.6667" font-weight="400" font-style="normal" 
>
</g>
</g>
</svg>
