<?xml version="1.0" encoding="UTF-8" standalone="no"?>
<svg width="209.973mm" height="147.997mm"
 viewBox="0 0 2480 1748"
 xmlns="http://www.w3.org/2000/svg" xmlns:xlink="http://www.w3.org/1999/xlink"  version="1.2" baseProfile="tiny">
<title>Qt SVG Document</title>
<desc>Generated with Qt</desc>
<defs>
</defs>
<g fill="none" stroke="black" stroke-width="1" fill-rule="evenodd" stroke-linecap="square" stroke-linejoin="bevel" >

<g fill="none" stroke="#000000" stroke-opacity="1" stroke-width="1" stroke-linecap="square" stroke-linejoin="bevel" transform="matrix(1,0,0,1,0,0)"
font-family="Sans" font-size="41.6667" font-weight="400" font-style="normal" 
>
</g>

<g fill="#ffffff" fill-opacity="1" stroke="none" transform="matrix(1,0,0,1,0,0)"
font-family="Sans" font-size="41.6667" font-weight="400" font-style="normal" 
>
<path vector-effect="none" fill-rule="evenodd" d="M0,0 L2480,0 L2480,1748 L0,1748 L0,0"/>
</g>

<g fill="none" stroke="#000000" stroke-opacity="1" stroke-width="1" stroke-linecap="square" stroke-linejoin="bevel" transform="matrix(1,0,0,1,0,0)"
font-family="Sans" font-size="41.6667" font-weight="400" font-style="normal" 
>
</g>

<g fill="#000000" fill-opacity="1" stroke="#000000" stroke-opacity="1" stroke-width="1" stroke-linecap="butt" stroke-linejoin="miter" stroke-miterlimit="2" transform="matrix(1,0,0,1,0,0)"
font-family="Sans" font-size="41.6667" font-weight="400" font-style="normal" 
>
</g>

<g fill="#000000" fill-opacity="1" stroke="#000000" stroke-opacity="1" stroke-width="6" stroke-linecap="square" stroke-linejoin="bevel" transform="matrix(1,0,0,1,0,0)"
font-family="Sans" font-size="41.6667" font-weight="400" font-style="normal" 
>
<polyline fill="none" vector-effect="none" points="934.779,1513.05 2115.73,1513.05 " />
<polyline fill="none" vector-effect="none" points="934.779,1513.05 1769.84,677.991 " />
<polyline fill="none" vector-effect="none" points="934.779,1513.05 934.779,332.098 " />
<polyline fill="none" vector-effect="none" points="934.779,332.098 949.025,356.773 " />
<polyline fill="none" vector-effect="none" points="949.025,356.773 934.779,356.773 " />
<polyline fill="none" vector-effect="none" points="934.779,332.098 920.532,356.773 " />
<polyline fill="none" vector-effect="none" points="920.532,356.773 934.779,356.773 " />
</g>

<g fill="#00ff00" fill-opacity="1" stroke="#00ff00" stroke-opacity="1" stroke-width="6" stroke-linecap="square" stroke-linejoin="bevel" transform="matrix(1,0,0,1,0,0)"
font-family="Sans" font-size="41.6667" font-weight="400" font-style="normal" 
>
</g>

<g fill="none" stroke="#00ff00" stroke-opacity="1" stroke-width="6" stroke-linecap="square" stroke-linejoin="bevel" transform="matrix(0,-1,1,0,934.779,1513.05)"
font-family="Sans" font-size="41.6667" font-weight="400" font-style="normal" 
>
<path vector-effect="none" fill-rule="evenodd" d="M0,7.38095 C4.07639,7.38095 7.38095,4.07639 7.38095,0 C7.38095,-4.07639 4.07639,-7.38095 0,-7.38095 C-4.07639,-7.38095 -7.38095,-4.07639 -7.38095,0 C-7.38095,4.07639 -4.07639,7.38095 0,7.38095 "/>
</g>

<g fill="#00ff00" fill-opacity="1" stroke="#00ff00" stroke-opacity="1" stroke-width="6" stroke-linecap="square" stroke-linejoin="bevel" transform="matrix(1,0,0,1,0,0)"
font-family="Sans" font-size="41.6667" font-weight="400" font-style="normal" 
>
<path vector-effect="none" fill-rule="evenodd" d="M929.56,1518.27 L927.398,1513.05 L929.56,1507.83 L929.56,1518.27"/>
<path vector-effect="none" fill-rule="evenodd" d="M929.56,1518.27 L929.56,1507.83 L934.779,1520.43 L929.56,1518.27"/>
<path vector-effect="none" fill-rule="evenodd" d="M934.779,1520.43 L929.56,1507.83 L934.779,1505.67 L934.779,1520.43"/>
<path vector-effect="none" fill-rule="evenodd" d="M934.779,1520.43 L934.779,1505.67 L939.998,1518.27 L934.779,1520.43"/>
<path vector-effect="none" fill-rule="evenodd" d="M939.998,1518.27 L934.779,1505.67 L939.998,1507.83 L939.998,1518.27"/>
<path vector-effect="none" fill-rule="evenodd" d="M939.998,1518.27 L939.998,1507.83 L942.16,1513.05 L939.998,1518.27"/>
</g>

<g fill="#000000" fill-opacity="1" stroke="#000000" stroke-opacity="1" stroke-width="6" stroke-linecap="round" stroke-linejoin="bevel" transform="matrix(1,0,0,1,0,0)"
font-family="Sans" font-size="41.6667" font-weight="400" font-style="normal" 
>
<polyline fill="none" vector-effect="none" points="891.614,378.003 911.296,378.003 891.614,407.527 911.296,407.527 " />
</g>

<g fill="#000000" fill-opacity="1" stroke="#000000" stroke-opacity="1" stroke-width="6" stroke-linecap="square" stroke-linejoin="bevel" transform="matrix(1,0,0,1,0,0)"
font-family="Sans" font-size="41.6667" font-weight="400" font-style="normal" 
>
</g>

<g fill="none" stroke="#000000" stroke-opacity="1" stroke-width="6" stroke-linecap="square" stroke-linejoin="bevel" transform="matrix(0,-1,1,0,934.779,1513.05)"
font-family="Sans" font-size="41.6667" font-weight="400" font-style="normal" 
>
<path vector-effect="none" fill-rule="evenodd" d="M0,177.143 C48.9166,177.143 93.2024,157.315 125.259,125.259 "/>
</g>

<g fill="#000000" fill-opacity="1" stroke="#000000" stroke-opacity="1" stroke-width="6" stroke-linecap="square" stroke-linejoin="bevel" transform="matrix(1,0,0,1,0,0)"
font-family="Sans" font-size="41.6667" font-weight="400" font-style="normal" 
>
</g>

<g fill="#000000" fill-opacity="1" stroke="#000000" stroke-opacity="1" stroke-width="6" stroke-linecap="round" stroke-linejoin="bevel" transform="matrix(1,0,0,1,0,0)"
font-family="Sans" font-size="41.6667" font-weight="400" font-style="normal" 
>
<polyline fill="none" vector-effect="none" points="1152.18,1443.23 1158.03,1443.23 1160.8,1441.69 1163.56,1438.93 1165.1,1436.16 1166.33,1431.85 1166.33,1425.09 1165.1,1420.78 1163.56,1418.01 1160.8,1415.24 1158.03,1413.71 1152.18,1413.71 1149.42,1415.24 1146.65,1418.01 1145.42,1420.78 1143.88,1425.09 1143.88,1431.85 1145.42,1436.16 1146.65,1438.93 1149.42,1441.69 1152.18,1443.23 " />
<polyline fill="none" vector-effect="none" points="1150.65,1427.85 1159.26,1427.85 " />
</g>

<g fill="#ff0000" fill-opacity="1" stroke="#ff0000" stroke-opacity="1" stroke-width="6" stroke-linecap="square" stroke-linejoin="bevel" transform="matrix(1,0,0,1,0,0)"
font-family="Sans" font-size="41.6667" font-weight="400" font-style="normal" 
>
<polyline fill="none" vector-effect="none" points="934.779,1513.05 1769.84,1513.05 " />
<polyline fill="none" vector-effect="none" points="1769.84,1513.05 1745.16,1527.3 " />
<polyline fill="none" vector-effect="none" points="1769.84,1513.05 1745.16,1498.8 " />
</g>

<g fill="#000000" fill-opacity="1" stroke="#000000" stroke-opacity="1" stroke-width="6" stroke-linecap="square" stroke-linejoin="bevel" transform="matrix(1,0,0,1,0,0)"
font-family="Sans" font-size="41.6667" font-weight="400" font-style="normal" 
>
<polyline fill="none" vector-effect="none" points="934.779,1513.05 99.7194,677.991 " />
<polyline fill="none" vector-effect="none" points="99.7194,677.991 127.242,685.365 " />
<polyline fill="none" vector-effect="none" points="127.242,685.365 117.168,695.439 " />
<polyline fill="none" vector-effect="none" points="99.7194,677.991 107.094,705.513 " />
<polyline fill="none" vector-effect="none" points="107.094,705.513 117.168,695.439 " />
</g>

<g fill="#000000" fill-opacity="1" stroke="#000000" stroke-opacity="1" stroke-width="6" stroke-linecap="round" stroke-linejoin="bevel" transform="matrix(1,0,0,1,0,0)"
font-family="Sans" font-size="41.6667" font-weight="400" font-style="normal" 
>
<polyline fill="none" vector-effect="none" points="101.657,740.973 116.662,755.978 120.576,757.718 124.491,757.718 128.405,755.978 130.58,753.803 132.319,749.889 132.319,745.975 130.58,742.06 115.575,727.055 " />
</g>

<g fill="#000000" fill-opacity="1" stroke="#000000" stroke-opacity="1" stroke-width="6" stroke-linecap="square" stroke-linejoin="bevel" transform="matrix(1,0,0,1,0,0)"
font-family="Sans" font-size="41.6667" font-weight="400" font-style="normal" 
>
<polyline fill="none" vector-effect="none" points="2115.73,1513.05 2091.06,1498.8 " />
<polyline fill="none" vector-effect="none" points="2091.06,1498.8 2091.06,1513.05 " />
<polyline fill="none" vector-effect="none" points="2115.73,1513.05 2091.06,1527.3 " />
<polyline fill="none" vector-effect="none" points="2091.06,1527.3 2091.06,1513.05 " />
</g>

<g fill="#000000" fill-opacity="1" stroke="#000000" stroke-opacity="1" stroke-width="6" stroke-linecap="round" stroke-linejoin="bevel" transform="matrix(1,0,0,1,0,0)"
font-family="Sans" font-size="41.6667" font-weight="400" font-style="normal" 
>
<polyline fill="none" vector-effect="none" points="2090.76,1570.58 2110.44,1541.06 " />
<polyline fill="none" vector-effect="none" points="2090.76,1541.06 2110.44,1570.58 " />
</g>

<g fill="#000000" fill-opacity="1" stroke="#000000" stroke-opacity="1" stroke-width="6" stroke-linecap="square" stroke-linejoin="bevel" transform="matrix(1,0,0,1,0,0)"
font-family="Sans" font-size="41.6667" font-weight="400" font-style="normal" 
>
<polyline fill="none" vector-effect="none" points="1769.84,677.991 1742.32,685.365 " />
<polyline fill="none" vector-effect="none" points="1742.32,685.365 1752.39,695.439 " />
<polyline fill="none" vector-effect="none" points="1769.84,677.991 1762.46,705.513 " />
<polyline fill="none" vector-effect="none" points="1762.46,705.513 1752.39,695.439 " />
</g>

<g fill="#000000" fill-opacity="1" stroke="#000000" stroke-opacity="1" stroke-width="6" stroke-linecap="round" stroke-linejoin="bevel" transform="matrix(1,0,0,1,0,0)"
font-family="Sans" font-size="41.6667" font-weight="400" font-style="normal" 
>
<polyline fill="none" vector-effect="none" points="1771.98,715.453 1800.91,728.283 1787.86,699.578 " />
</g>

<g fill="#ff0000" fill-opacity="1" stroke="#ff0000" stroke-opacity="1" stroke-width="6" stroke-linecap="round" stroke-linejoin="bevel" transform="matrix(1,0,0,1,0,0)"
font-family="Sans" font-size="41.6667" font-weight="400" font-style="normal" 
>
<polyline fill="none" vector-effect="none" points="1813.13,1603.06 1813.13,1632.58 " />
<polyline fill="none" vector-effect="none" points="1813.13,1607.36 1815.9,1604.59 1818.67,1603.06 1822.97,1603.06 1825.74,1604.59 1828.51,1607.36 1830.05,1611.36 1830.05,1614.44 1828.51,1618.43 1825.74,1621.2 1822.97,1622.74 1818.67,1622.74 1815.9,1621.2 1813.13,1618.43 " />
<polyline fill="none" vector-effect="none" points="1849.69,1632.58 1846.92,1629.81 1844.15,1625.51 1841.38,1619.97 1839.84,1612.9 1839.84,1607.36 1841.38,1600.29 1844.15,1594.75 1846.92,1590.45 1849.69,1587.68 " />
<polyline fill="none" vector-effect="none" points="1859.53,1622.74 1874.9,1603.06 " />
<polyline fill="none" vector-effect="none" points="1859.53,1603.06 1874.9,1622.74 " />
<polyline fill="none" vector-effect="none" points="1883.43,1628.27 1884.97,1627.04 1886.2,1624.28 1886.2,1621.2 1884.97,1619.97 1883.43,1621.2 1884.97,1622.74 1886.2,1621.2 " />
<polyline fill="none" vector-effect="none" points="1897.49,1632.58 1901.79,1632.58 1903.02,1631.04 1907.33,1622.74 1915.63,1603.06 " />
<polyline fill="none" vector-effect="none" points="1899.02,1603.06 1907.33,1622.74 " />
<polyline fill="none" vector-effect="none" points="1919.98,1632.58 1922.75,1629.81 1925.52,1625.51 1928.28,1619.97 1929.82,1612.9 1929.82,1607.36 1928.28,1600.29 1925.52,1594.75 1922.75,1590.45 1919.98,1587.68 " />
<polyline fill="none" vector-effect="none" points="1804.16,1666.42 1804.16,1695.94 " />
<polyline fill="none" vector-effect="none" points="1804.16,1670.73 1806.93,1667.96 1809.69,1666.42 1814,1666.42 1816.77,1667.96 1819.53,1670.73 1821.07,1674.72 1821.07,1677.8 1819.53,1681.8 1816.77,1684.57 1814,1686.1 1809.69,1686.1 1806.93,1684.57 1804.16,1681.8 " />
<polyline fill="none" vector-effect="none" points="1840.71,1695.94 1837.94,1693.18 1835.18,1688.87 1832.41,1683.34 1830.87,1676.26 1830.87,1670.73 1832.41,1663.65 1835.18,1658.12 1837.94,1653.81 1840.71,1651.04 " />
<polyline fill="none" vector-effect="none" points="1850.55,1666.42 1850.55,1680.57 1852.09,1684.57 1854.86,1686.1 1858.86,1686.1 1861.93,1684.57 1865.93,1680.57 " />
<polyline fill="none" vector-effect="none" points="1865.93,1666.42 1865.93,1686.1 " />
<polyline fill="none" vector-effect="none" points="1877.26,1691.64 1878.8,1690.41 1880.03,1687.64 1880.03,1684.57 1878.8,1683.34 1877.26,1684.57 1878.8,1686.1 1880.03,1684.57 " />
<polyline fill="none" vector-effect="none" points="1891.32,1666.42 1899.63,1686.1 1908.24,1666.42 " />
<polyline fill="none" vector-effect="none" points="1913.82,1695.94 1916.59,1693.18 1919.35,1688.87 1922.12,1683.34 1923.66,1676.26 1923.66,1670.73 1922.12,1663.65 1919.35,1658.12 1916.59,1653.81 1913.82,1651.04 " />
</g>

<g fill="#ff0000" fill-opacity="1" stroke="#ff0000" stroke-opacity="1" stroke-width="6" stroke-linecap="round" stroke-linejoin="bevel" transform="matrix(1,0,0,1,0,0)"
font-family="Sans" font-size="41.6667" font-weight="400" font-style="normal" 
>
</g>

<g fill="#ff0000" fill-opacity="1" stroke="#ff0000" stroke-opacity="1" stroke-width="6" stroke-linecap="round" stroke-linejoin="bevel" transform="matrix(1,0,0,1,0,0)"
font-family="Sans" font-size="41.6667" font-weight="400" font-style="normal" 
>
</g>

<g fill="none" stroke="#000000" stroke-opacity="1" stroke-width="1" stroke-linecap="square" stroke-linejoin="bevel" transform="matrix(1,0,0,1,0,0)"
font-family="Sans" font-size="41.6667" font-weight="400" font-style="normal" 
>
</g>

<g fill="#000000" fill-opacity="1" stroke="#000000" stroke-opacity="1" stroke-width="1" stroke-linecap="butt" stroke-linejoin="miter" stroke-miterlimit="2" transform="matrix(1,0,0,1,0,0)"
font-family="Sans" font-size="41.6667" font-weight="400" font-style="normal" 
>
</g>

<g fill="#000000" fill-opacity="1" stroke="#000000" stroke-opacity="1" stroke-width="1" stroke-linecap="square" stroke-linejoin="bevel" transform="matrix(1,0,0,1,0,0)"
font-family="Sans" font-size="41.6667" font-weight="400" font-style="normal" 
>
<polyline fill="none" vector-effect="non-scaling-stroke" points="9.44762,1738.46 9.44762,17.4819 2446.48,17.4819 2446.48,1738.46 9.44762,1738.46 " />
</g>

<g fill="#000000" fill-opacity="1" stroke="#000000" stroke-opacity="1" stroke-width="1" stroke-linecap="square" stroke-linejoin="bevel" transform="matrix(1,0,0,1,0,0)"
font-family="Sans" font-size="41.6667" font-weight="400" font-style="normal" 
>
</g>

<g fill="#000000" fill-opacity="1" stroke="#000000" stroke-opacity="1" stroke-width="1" stroke-linecap="square" stroke-linejoin="bevel" transform="matrix(1,0,0,1,0,0)"
font-family="Sans" font-size="41.6667" font-weight="400" font-style="normal" 
>
</g>

<g fill="none" stroke="#000000" stroke-opacity="1" stroke-width="1" stroke-linecap="square" stroke-linejoin="bevel" transform="matrix(1,0,0,1,0,0)"
font-family="Sans" font-size="41.6667" font-weight="400" font-style="normal" 
>
</g>
</g>
</svg>
