<?xml version="1.0" encoding="UTF-8" standalone="no"?>
<svg width="209.973mm" height="147.997mm"
 viewBox="0 0 2480 1748"
 xmlns="http://www.w3.org/2000/svg" xmlns:xlink="http://www.w3.org/1999/xlink"  version="1.2" baseProfile="tiny">
<title>Qt SVG Document</title>
<desc>Generated with Qt</desc>
<defs>
</defs>
<g fill="none" stroke="black" stroke-width="1" fill-rule="evenodd" stroke-linecap="square" stroke-linejoin="bevel" >

<g fill="none" stroke="#000000" stroke-opacity="1" stroke-width="1" stroke-linecap="square" stroke-linejoin="bevel" transform="matrix(1,0,0,1,0,0)"
font-family="Sans" font-size="41.6667" font-weight="400" font-style="normal" 
>
</g>

<g fill="#ffffff" fill-opacity="1" stroke="none" transform="matrix(1,0,0,1,0,0)"
font-family="Sans" font-size="41.6667" font-weight="400" font-style="normal" 
>
<path vector-effect="none" fill-rule="evenodd" d="M0,0 L2480,0 L2480,1748 L0,1748 L0,0"/>
</g>

<g fill="none" stroke="#000000" stroke-opacity="1" stroke-width="1" stroke-linecap="square" stroke-linejoin="bevel" transform="matrix(1,0,0,1,0,0)"
font-family="Sans" font-size="41.6667" font-weight="400" font-style="normal" 
>
</g>

<g fill="#000000" fill-opacity="1" stroke="#000000" stroke-opacity="1" stroke-width="1" stroke-linecap="butt" stroke-linejoin="miter" stroke-miterlimit="2" transform="matrix(1,0,0,1,0,0)"
font-family="Sans" font-size="41.6667" font-weight="400" font-style="normal" 
>
</g>

<g fill="#000000" fill-opacity="1" stroke="#000000" stroke-opacity="1" stroke-width="6" stroke-linecap="square" stroke-linejoin="bevel" transform="matrix(1,0,0,1,0,0)"
font-family="Sans" font-size="41.6667" font-weight="400" font-style="normal" 
>
<polyline fill="none" vector-effect="none" points="1916.67,1379.75 1215.48,1379.75 " />
<polyline fill="none" vector-effect="none" points="1302.33,770.821 1215.48,770.821 " />
<polyline fill="none" vector-effect="none" points="1216.41,1361.3 1216.41,789.274 " />
<path vector-effect="none" fill-rule="evenodd" d="M1213.33,1361.3 L1219.48,1361.3 L1216.41,1379.75 L1213.33,1361.3"/>
<path vector-effect="none" fill-rule="evenodd" d="M1219.48,789.274 L1213.33,789.274 L1216.41,770.821 L1219.48,789.274"/>
</g>

<g fill="#000000" fill-opacity="1" stroke="#000000" stroke-opacity="1" stroke-width="6" stroke-linecap="round" stroke-linejoin="bevel" transform="matrix(1,0,0,1,0,0)"
font-family="Sans" font-size="41.6667" font-weight="400" font-style="normal" 
>
<polyline fill="none" vector-effect="none" points="1215.94,1125.99 1215.94,1119.07 1214.02,1113.69 1212.49,1112.15 1209.03,1110.23 1203.64,1110.23 1200.18,1112.15 1196.72,1115.61 1194.8,1120.61 1193.26,1127.91 1191.34,1131.37 1187.88,1132.91 1184.42,1132.91 1180.96,1131.37 1179.04,1125.99 1179.04,1119.07 1180.96,1113.69 1184.42,1112.15 1187.88,1112.15 1191.34,1113.69 1193.26,1117.15 1194.8,1124.45 1196.72,1129.45 1200.18,1132.91 1203.64,1134.83 1209.03,1134.83 1212.49,1132.91 1214.02,1131.37 1215.94,1125.99 " />
<polyline fill="none" vector-effect="none" points="1187.88,1097.76 1185.96,1097.76 1182.5,1096.22 1180.96,1094.3 1179.04,1090.84 1179.04,1083.92 1180.96,1080.46 1182.5,1078.54 1185.96,1077 1189.42,1077 1193.26,1078.54 1198.26,1082 1215.94,1099.68 1215.94,1075.08 " />
<polyline fill="none" vector-effect="none" points="1179.04,1043.39 1179.04,1061.08 1194.8,1062.61 1193.26,1061.08 1191.34,1055.69 1191.34,1050.31 1193.26,1045.31 1196.72,1041.85 1201.72,1039.93 1205.57,1039.93 1210.56,1041.85 1214.02,1045.31 1215.94,1050.31 1215.94,1055.69 1214.02,1061.08 1212.49,1062.61 1209.03,1064.54 " />
</g>

<g fill="#c0c0c0" fill-opacity="1" stroke="#c0c0c0" stroke-opacity="1" stroke-width="6" stroke-linecap="square" stroke-linejoin="bevel" transform="matrix(1,0,0,1,0,0)"
font-family="Sans" font-size="41.6667" font-weight="400" font-style="normal" 
>
<path vector-effect="none" fill-rule="evenodd" d="M1909.75,789.274 L1924.51,789.274 L1924.51,1379.75 L1909.75,789.274"/>
<path vector-effect="none" fill-rule="evenodd" d="M1909.75,789.274 L1924.51,1379.75 L1909.75,1379.75 L1909.75,789.274"/>
<path vector-effect="none" fill-rule="evenodd" d="M195.645,1416.65 L195.645,1342.85 L933.741,1342.85 L195.645,1416.65"/>
<path vector-effect="none" fill-rule="evenodd" d="M195.645,1416.65 L933.741,1342.85 L933.741,1416.65 L195.645,1416.65"/>
</g>

<g fill="#000000" fill-opacity="1" stroke="#000000" stroke-opacity="1" stroke-width="6" stroke-linecap="square" stroke-linejoin="bevel" transform="matrix(1,0,0,1,0,0)"
font-family="Sans" font-size="41.6667" font-weight="400" font-style="normal" 
>
<path vector-effect="none" fill-rule="evenodd" d="M380.169,1340.87 L380.169,1267.06 L749.217,1267.06 L380.169,1340.87"/>
<path vector-effect="none" fill-rule="evenodd" d="M380.169,1340.87 L749.217,1267.06 L749.217,1340.87 L380.169,1340.87"/>
<path vector-effect="none" fill-rule="evenodd" d="M600.468,1313.02 L528.918,1294.9 L779.566,305.373 L600.468,1313.02"/>
<path vector-effect="none" fill-rule="evenodd" d="M600.468,1313.02 L779.566,305.373 L838.999,371.335 L600.468,1313.02"/>
<path vector-effect="none" fill-rule="evenodd" d="M838.999,371.335 L779.566,305.373 L1525.37,197.203 L838.999,371.335"/>
<path vector-effect="none" fill-rule="evenodd" d="M838.999,371.335 L1525.37,197.203 L1535.97,270.248 L838.999,371.335"/>
</g>

<g fill="#c0c0c0" fill-opacity="1" stroke="#c0c0c0" stroke-opacity="1" stroke-width="6" stroke-linecap="square" stroke-linejoin="bevel" transform="matrix(1,0,0,1,0,0)"
font-family="Sans" font-size="41.6667" font-weight="400" font-style="normal" 
>
<path vector-effect="none" fill-rule="evenodd" d="M1302.79,807.726 L1302.79,770.821 L2040.88,770.821 L1302.79,807.726"/>
<path vector-effect="none" fill-rule="evenodd" d="M1302.79,807.726 L2040.88,770.821 L2040.88,807.726 L1302.79,807.726"/>
<path vector-effect="none" fill-rule="evenodd" d="M1419.16,789.274 L1433.92,789.274 L1433.92,1379.75 L1419.16,789.274"/>
<path vector-effect="none" fill-rule="evenodd" d="M1419.16,789.274 L1433.92,1379.75 L1419.16,1379.75 L1419.16,789.274"/>
</g>

<g fill="#000000" fill-opacity="1" stroke="#000000" stroke-opacity="1" stroke-width="6" stroke-linecap="square" stroke-linejoin="bevel" transform="matrix(1,0,0,1,0,0)"
font-family="Sans" font-size="41.6667" font-weight="400" font-style="normal" 
>
<polyline fill="none" vector-effect="none" points="195.645,1379.75 2192.68,1379.75 " />
<path vector-effect="none" fill-rule="evenodd" d="M1523.73,239.804 L1537.61,227.647 L1681.3,391.727 L1523.73,239.804"/>
<path vector-effect="none" fill-rule="evenodd" d="M1523.73,239.804 L1681.3,391.727 L1667.42,403.884 L1523.73,239.804"/>
<path vector-effect="none" fill-rule="evenodd" d="M1676.88,495.565 L1661.61,505.933 L1610.2,430.232 L1676.88,495.565"/>
<path vector-effect="none" fill-rule="evenodd" d="M1676.88,495.565 L1610.2,430.232 L1635.83,435.129 L1676.88,495.565"/>
<path vector-effect="none" fill-rule="evenodd" d="M1635.83,435.129 L1610.2,430.232 L1728.16,350.113 L1635.83,435.129"/>
<path vector-effect="none" fill-rule="evenodd" d="M1635.83,435.129 L1728.16,350.113 L1723.26,375.745 L1635.83,435.129"/>
<path vector-effect="none" fill-rule="evenodd" d="M1723.26,375.745 L1728.16,350.113 L1779.57,425.814 L1723.26,375.745"/>
<path vector-effect="none" fill-rule="evenodd" d="M1723.26,375.745 L1779.57,425.814 L1764.31,436.181 L1723.26,375.745"/>
</g>

<g fill="#ff0000" fill-opacity="1" stroke="#ff0000" stroke-opacity="1" stroke-width="6" stroke-linecap="round" stroke-linejoin="bevel" transform="matrix(1,0,0,1,0,0)"
font-family="Sans" font-size="41.6667" font-weight="400" font-style="normal" 
>
<polyline fill="none" vector-effect="none" points="669.347,1379.75 681.649,1361.3 " />
<polyline fill="none" vector-effect="none" points="669.347,1361.3 681.649,1379.75 " />
<polyline fill="none" vector-effect="none" points="692.111,1379.75 694.033,1379.75 696.532,1378.79 698.261,1376.29 699.223,1371.87 699.223,1369.18 698.261,1364.76 696.532,1362.26 694.033,1361.3 692.111,1361.3 689.612,1362.26 687.882,1364.76 686.921,1369.18 686.921,1371.87 687.882,1376.29 689.612,1378.79 692.111,1379.75 " />
</g>

<g fill="#00ff00" fill-opacity="1" stroke="#00ff00" stroke-opacity="1" stroke-width="6" stroke-linecap="round" stroke-linejoin="bevel" transform="matrix(1,0,0,1,0,0)"
font-family="Sans" font-size="41.6667" font-weight="400" font-style="normal" 
>
<polyline fill="none" vector-effect="none" points="576.855,1345.59 583.967,1354.43 583.967,1364.04 " />
<polyline fill="none" vector-effect="none" points="583.967,1354.43 590.886,1345.59 " />
<polyline fill="none" vector-effect="none" points="599.618,1364.04 601.54,1364.04 604.039,1363.08 605.769,1360.58 606.73,1356.16 606.73,1353.47 605.769,1349.05 604.039,1346.55 601.54,1345.59 599.618,1345.59 597.12,1346.55 595.39,1349.05 594.429,1353.47 594.429,1356.16 595.39,1360.58 597.12,1363.08 599.618,1364.04 " />
</g>

<g fill="#0000ff" fill-opacity="1" stroke="#0000ff" stroke-opacity="1" stroke-width="6" stroke-linecap="round" stroke-linejoin="bevel" transform="matrix(1,0,0,1,0,0)"
font-family="Sans" font-size="41.6667" font-weight="400" font-style="normal" 
>
<polyline fill="none" vector-effect="none" points="564.693,1256.64 576.995,1256.64 564.693,1275.1 576.995,1275.1 " />
<polyline fill="none" vector-effect="none" points="587.456,1275.1 589.379,1275.1 591.877,1274.13 593.607,1271.64 594.568,1267.22 594.568,1264.52 593.607,1260.1 591.877,1257.6 589.379,1256.64 587.456,1256.64 584.958,1257.6 583.228,1260.1 582.267,1264.52 582.267,1267.22 583.228,1271.64 584.958,1274.13 587.456,1275.1 " />
</g>

<g fill="#00ff00" fill-opacity="1" stroke="#00ff00" stroke-opacity="1" stroke-width="6" stroke-linecap="round" stroke-linejoin="bevel" transform="matrix(1,0,0,1,0,0)"
font-family="Sans" font-size="41.6667" font-weight="400" font-style="normal" 
>
<polyline fill="none" vector-effect="none" points="1407.44,752.369 1414.55,761.211 1414.55,770.821 " />
<polyline fill="none" vector-effect="none" points="1414.55,761.211 1421.47,752.369 " />
<polyline fill="none" vector-effect="none" points="1425.02,755.829 1426.75,755.06 1429.44,752.369 1429.44,770.821 " />
</g>

<g fill="#00ff00" fill-opacity="1" stroke="#00ff00" stroke-opacity="1" stroke-width="6" stroke-linecap="square" stroke-linejoin="bevel" transform="matrix(1,0,0,1,0,0)"
font-family="Sans" font-size="41.6667" font-weight="400" font-style="normal" 
>
<path vector-effect="none" fill-rule="evenodd" d="M1302.79,774.512 L1302.79,767.131 L1385.45,767.131 L1302.79,774.512"/>
<path vector-effect="none" fill-rule="evenodd" d="M1302.79,774.512 L1385.45,767.131 L1385.45,774.512 L1302.79,774.512"/>
<path vector-effect="none" fill-rule="evenodd" d="M1385.45,781.893 L1385.45,759.75 L1407.44,770.821 L1385.45,781.893"/>
</g>

<g fill="#ff0000" fill-opacity="1" stroke="#ff0000" stroke-opacity="1" stroke-width="6" stroke-linecap="round" stroke-linejoin="bevel" transform="matrix(1,0,0,1,0,0)"
font-family="Sans" font-size="41.6667" font-weight="400" font-style="normal" 
>
<polyline fill="none" vector-effect="none" points="1314.95,755.111 1327.25,736.658 " />
<polyline fill="none" vector-effect="none" points="1314.95,736.658 1327.25,755.111 " />
<polyline fill="none" vector-effect="none" points="1332.52,740.118 1334.25,739.349 1336.94,736.658 1336.94,755.111 " />
</g>

<g fill="#0000ff" fill-opacity="1" stroke="#0000ff" stroke-opacity="1" stroke-width="6" stroke-linecap="round" stroke-linejoin="bevel" transform="matrix(1,0,0,1,0,0)"
font-family="Sans" font-size="41.6667" font-weight="400" font-style="normal" 
>
<polyline fill="none" vector-effect="none" points="1302.79,647.715 1315.09,647.715 1302.79,666.167 1315.09,666.167 " />
<polyline fill="none" vector-effect="none" points="1320.36,651.175 1322.09,650.406 1324.78,647.715 1324.78,666.167 " />
</g>

<g fill="#0000ff" fill-opacity="1" stroke="#0000ff" stroke-opacity="1" stroke-width="6" stroke-linecap="square" stroke-linejoin="bevel" transform="matrix(1,0,0,1,0,0)"
font-family="Sans" font-size="41.6667" font-weight="400" font-style="normal" 
>
<path vector-effect="none" fill-rule="evenodd" d="M1306.48,770.821 L1299.1,770.821 L1299.1,688.157 L1306.48,770.821"/>
<path vector-effect="none" fill-rule="evenodd" d="M1306.48,770.821 L1299.1,688.157 L1306.48,688.157 L1306.48,770.821"/>
<path vector-effect="none" fill-rule="evenodd" d="M1313.86,688.157 L1291.72,688.157 L1302.79,666.167 L1313.86,688.157"/>
</g>

<g fill="#000000" fill-opacity="1" stroke="#000000" stroke-opacity="1" stroke-width="6" stroke-linecap="square" stroke-linejoin="bevel" transform="matrix(1,0,0,1,0,0)"
font-family="Sans" font-size="41.6667" font-weight="400" font-style="normal" 
>
<polyline fill="none" vector-effect="none" points="1302.79,789.274 1302.79,770.821 " />
<polyline fill="none" vector-effect="none" points="1302.79,771.283 1302.79,1461.83 " />
<polyline fill="none" vector-effect="none" points="564.693,1380.21 564.693,1461.83 " />
<polyline fill="none" vector-effect="none" points="1284.34,1460.9 583.145,1460.9 " />
<path vector-effect="none" fill-rule="evenodd" d="M1284.34,1463.98 L1284.34,1457.83 L1302.79,1460.9 L1284.34,1463.98"/>
<path vector-effect="none" fill-rule="evenodd" d="M583.145,1457.83 L583.145,1463.98 L564.693,1460.9 L583.145,1457.83"/>
</g>

<g fill="#000000" fill-opacity="1" stroke="#000000" stroke-opacity="1" stroke-width="6" stroke-linecap="round" stroke-linejoin="bevel" transform="matrix(1,0,0,1,0,0)"
font-family="Sans" font-size="41.6667" font-weight="400" font-style="normal" 
>
<polyline fill="none" vector-effect="none" points="840.922,1430.46 844.382,1428.92 849.764,1423.54 849.764,1460.44 " />
<polyline fill="none" vector-effect="none" points="879.42,1460.44 883.264,1460.44 888.262,1458.52 891.721,1453.52 893.643,1444.68 893.643,1439.3 891.721,1430.46 888.262,1425.46 883.264,1423.54 879.42,1423.54 874.422,1425.46 870.962,1430.46 869.04,1439.3 869.04,1444.68 870.962,1453.52 874.422,1458.52 879.42,1460.44 " />
<polyline fill="none" vector-effect="none" points="914.567,1460.44 918.411,1460.44 923.409,1458.52 926.869,1453.52 928.791,1444.68 928.791,1439.3 926.869,1430.46 923.409,1425.46 918.411,1423.54 914.567,1423.54 909.57,1425.46 906.11,1430.46 904.188,1439.3 904.188,1444.68 906.11,1453.52 909.57,1458.52 914.567,1460.44 " />
<polyline fill="none" vector-effect="none" points="949.715,1460.44 953.559,1460.44 958.556,1458.52 962.016,1453.52 963.938,1444.68 963.938,1439.3 962.016,1430.46 958.556,1425.46 953.559,1423.54 949.715,1423.54 944.717,1425.46 941.257,1430.46 939.335,1439.3 939.335,1444.68 941.257,1453.52 944.717,1458.52 949.715,1460.44 " />
</g>

<g fill="#00ff00" fill-opacity="1" stroke="#00ff00" stroke-opacity="1" stroke-width="6" stroke-linecap="square" stroke-linejoin="bevel" transform="matrix(1,0,0,1,0,0)"
font-family="Sans" font-size="41.6667" font-weight="400" font-style="normal" 
>
</g>

<g fill="none" stroke="#00ff00" stroke-opacity="1" stroke-width="6" stroke-linecap="square" stroke-linejoin="bevel" transform="matrix(1,0,0,1,564.693,1379.75)"
font-family="Sans" font-size="41.6667" font-weight="400" font-style="normal" 
>
<path vector-effect="none" fill-rule="evenodd" d="M17.8082,0 C17.8082,-9.83519 9.83519,-17.8082 0,-17.8082 C-9.83519,-17.8082 -17.8082,-9.83519 -17.8082,0 C-17.8082,9.83519 -9.83519,17.8082 0,17.8082 C9.83519,17.8082 17.8082,9.83519 17.8082,0 "/>
</g>

<g fill="#00ff00" fill-opacity="1" stroke="#00ff00" stroke-opacity="1" stroke-width="6" stroke-linecap="square" stroke-linejoin="bevel" transform="matrix(1,0,0,1,0,0)"
font-family="Sans" font-size="41.6667" font-weight="400" font-style="normal" 
>
<polyline fill="none" vector-effect="none" points="577.285,1392.34 552.101,1367.16 " />
<polyline fill="none" vector-effect="none" points="577.285,1367.16 552.101,1392.34 " />
</g>

<g fill="#ff0000" fill-opacity="1" stroke="#ff0000" stroke-opacity="1" stroke-width="6" stroke-linecap="square" stroke-linejoin="bevel" transform="matrix(1,0,0,1,0,0)"
font-family="Sans" font-size="41.6667" font-weight="400" font-style="normal" 
>
<path vector-effect="none" fill-rule="evenodd" d="M564.693,1383.44 L564.693,1376.06 L647.358,1376.06 L564.693,1383.44"/>
<path vector-effect="none" fill-rule="evenodd" d="M564.693,1383.44 L647.358,1376.06 L647.358,1383.44 L564.693,1383.44"/>
<path vector-effect="none" fill-rule="evenodd" d="M647.358,1390.82 L647.358,1368.68 L669.347,1379.75 L647.358,1390.82"/>
</g>

<g fill="#0000ff" fill-opacity="1" stroke="#0000ff" stroke-opacity="1" stroke-width="6" stroke-linecap="square" stroke-linejoin="bevel" transform="matrix(1,0,0,1,0,0)"
font-family="Sans" font-size="41.6667" font-weight="400" font-style="normal" 
>
<path vector-effect="none" fill-rule="evenodd" d="M568.383,1379.75 L561.003,1379.75 L561.003,1297.09 L568.383,1379.75"/>
<path vector-effect="none" fill-rule="evenodd" d="M568.383,1379.75 L561.003,1297.09 L568.383,1297.09 L568.383,1379.75"/>
<path vector-effect="none" fill-rule="evenodd" d="M575.764,1297.09 L553.622,1297.09 L564.693,1275.1 L575.764,1297.09"/>
</g>

<g fill="#ff0000" fill-opacity="1" stroke="#ff0000" stroke-opacity="1" stroke-width="6" stroke-linecap="square" stroke-linejoin="bevel" transform="matrix(1,0,0,1,0,0)"
font-family="Sans" font-size="41.6667" font-weight="400" font-style="normal" 
>
</g>

<g fill="none" stroke="#ff0000" stroke-opacity="1" stroke-width="6" stroke-linecap="square" stroke-linejoin="bevel" transform="matrix(1,0,0,1,1302.79,770.821)"
font-family="Sans" font-size="41.6667" font-weight="400" font-style="normal" 
>
<path vector-effect="none" fill-rule="evenodd" d="M17.8082,0 C17.8082,-9.83519 9.83519,-17.8082 0,-17.8082 C-9.83519,-17.8082 -17.8082,-9.83519 -17.8082,0 C-17.8082,9.83519 -9.83519,17.8082 0,17.8082 C9.83519,17.8082 17.8082,9.83519 17.8082,0 "/>
</g>

<g fill="#ff0000" fill-opacity="1" stroke="#ff0000" stroke-opacity="1" stroke-width="6" stroke-linecap="square" stroke-linejoin="bevel" transform="matrix(1,0,0,1,0,0)"
font-family="Sans" font-size="41.6667" font-weight="400" font-style="normal" 
>
</g>

<g fill="none" stroke="#ff0000" stroke-opacity="1" stroke-width="6" stroke-linecap="square" stroke-linejoin="bevel" transform="matrix(1,0,0,1,1302.79,770.821)"
font-family="Sans" font-size="41.6667" font-weight="400" font-style="normal" 
>
<path vector-effect="none" fill-rule="evenodd" d="M4.45205,0 C4.45205,-2.4588 2.4588,-4.45205 0,-4.45205 C-2.4588,-4.45205 -4.45205,-2.4588 -4.45205,0 C-4.45205,2.4588 -2.4588,4.45205 0,4.45205 C2.4588,4.45205 4.45205,2.4588 4.45205,0 "/>
</g>

<g fill="#ff0000" fill-opacity="1" stroke="#ff0000" stroke-opacity="1" stroke-width="6" stroke-linecap="square" stroke-linejoin="bevel" transform="matrix(1,0,0,1,0,0)"
font-family="Sans" font-size="41.6667" font-weight="400" font-style="normal" 
>
</g>

<g fill="#ff0000" fill-opacity="1" stroke="#ff0000" stroke-opacity="1" stroke-width="6" stroke-linecap="square" stroke-linejoin="bevel" transform="matrix(1,0,0,1,0,0)"
font-family="Sans" font-size="41.6667" font-weight="400" font-style="normal" 
>
</g>

<g fill="#ff0000" fill-opacity="1" stroke="#ff0000" stroke-opacity="1" stroke-width="6" stroke-linecap="square" stroke-linejoin="bevel" transform="matrix(1,0,0,1,0,0)"
font-family="Sans" font-size="41.6667" font-weight="400" font-style="normal" 
>
</g>

<g fill="none" stroke="#000000" stroke-opacity="1" stroke-width="1" stroke-linecap="square" stroke-linejoin="bevel" transform="matrix(1,0,0,1,0,0)"
font-family="Sans" font-size="41.6667" font-weight="400" font-style="normal" 
>
</g>

<g fill="#000000" fill-opacity="1" stroke="#000000" stroke-opacity="1" stroke-width="1" stroke-linecap="butt" stroke-linejoin="miter" stroke-miterlimit="2" transform="matrix(1,0,0,1,0,0)"
font-family="Sans" font-size="41.6667" font-weight="400" font-style="normal" 
>
</g>

<g fill="#000000" fill-opacity="1" stroke="#000000" stroke-opacity="1" stroke-width="1" stroke-linecap="square" stroke-linejoin="bevel" transform="matrix(1,0,0,1,0,0)"
font-family="Sans" font-size="41.6667" font-weight="400" font-style="normal" 
>
<polyline fill="none" vector-effect="non-scaling-stroke" points="9.44762,1738.46 9.44762,14.976 2465.19,14.976 2465.19,1738.46 9.44762,1738.46 " />
</g>

<g fill="#000000" fill-opacity="1" stroke="#000000" stroke-opacity="1" stroke-width="1" stroke-linecap="square" stroke-linejoin="bevel" transform="matrix(1,0,0,1,0,0)"
font-family="Sans" font-size="41.6667" font-weight="400" font-style="normal" 
>
</g>

<g fill="#000000" fill-opacity="1" stroke="#000000" stroke-opacity="1" stroke-width="1" stroke-linecap="square" stroke-linejoin="bevel" transform="matrix(1,0,0,1,0,0)"
font-family="Sans" font-size="41.6667" font-weight="400" font-style="normal" 
>
</g>

<g fill="none" stroke="#000000" stroke-opacity="1" stroke-width="1" stroke-linecap="square" stroke-linejoin="bevel" transform="matrix(1,0,0,1,0,0)"
font-family="Sans" font-size="41.6667" font-weight="400" font-style="normal" 
>
</g>
</g>
</svg>
