<?xml version="1.0" encoding="UTF-8" standalone="no"?>
<svg width="209.973mm" height="147.997mm"
 viewBox="0 0 2480 1748"
 xmlns="http://www.w3.org/2000/svg" xmlns:xlink="http://www.w3.org/1999/xlink"  version="1.2" baseProfile="tiny">
<title>Qt SVG Document</title>
<desc>Generated with Qt</desc>
<defs>
</defs>
<g fill="none" stroke="black" stroke-width="1" fill-rule="evenodd" stroke-linecap="square" stroke-linejoin="bevel" >

<g fill="none" stroke="#000000" stroke-opacity="1" stroke-width="1" stroke-linecap="square" stroke-linejoin="bevel" transform="matrix(1,0,0,1,0,0)"
font-family="Sans" font-size="41.6667" font-weight="400" font-style="normal" 
>
</g>

<g fill="#ffffff" fill-opacity="1" stroke="none" transform="matrix(1,0,0,1,0,0)"
font-family="Sans" font-size="41.6667" font-weight="400" font-style="normal" 
>
<path vector-effect="none" fill-rule="evenodd" d="M0,0 L2480,0 L2480,1748 L0,1748 L0,0"/>
</g>

<g fill="none" stroke="#000000" stroke-opacity="1" stroke-width="1" stroke-linecap="square" stroke-linejoin="bevel" transform="matrix(1,0,0,1,0,0)"
font-family="Sans" font-size="41.6667" font-weight="400" font-style="normal" 
>
</g>

<g fill="#000000" fill-opacity="1" stroke="#000000" stroke-opacity="1" stroke-width="1" stroke-linecap="butt" stroke-linejoin="miter" stroke-miterlimit="2" transform="matrix(1,0,0,1,0,0)"
font-family="Sans" font-size="41.6667" font-weight="400" font-style="normal" 
>
</g>

<g fill="#0000ff" fill-opacity="1" stroke="#0000ff" stroke-opacity="1" stroke-width="6" stroke-linecap="square" stroke-linejoin="bevel" transform="matrix(1,0,0,1,0,0)"
font-family="Sans" font-size="41.6667" font-weight="400" font-style="normal" 
>
<path vector-effect="none" fill-rule="evenodd" d="M1489,239.323 L1525.91,175.402 L1632.52,236.951 L1489,239.323"/>
<path vector-effect="none" fill-rule="evenodd" d="M1489,239.323 L1632.52,236.951 L1595.61,300.872 L1489,239.323"/>
<path vector-effect="none" fill-rule="evenodd" d="M904.689,689.818 L941.594,726.722 L402.785,726.722 L904.689,689.818"/>
<path vector-effect="none" fill-rule="evenodd" d="M904.689,689.818 L402.785,726.722 L439.689,689.818 L904.689,689.818"/>
<path vector-effect="none" fill-rule="evenodd" d="M439.689,689.818 L402.785,726.722 L402.785,376.127 L439.689,689.818"/>
<path vector-effect="none" fill-rule="evenodd" d="M439.689,689.818 L402.785,376.127 L439.689,413.032 L439.689,689.818"/>
<path vector-effect="none" fill-rule="evenodd" d="M439.689,413.032 L402.785,376.127 L941.594,376.127 L439.689,413.032"/>
<path vector-effect="none" fill-rule="evenodd" d="M439.689,413.032 L941.594,376.127 L904.689,413.032 L439.689,413.032"/>
<path vector-effect="none" fill-rule="evenodd" d="M904.689,413.032 L941.594,376.127 L941.594,726.722 L904.689,413.032"/>
<path vector-effect="none" fill-rule="evenodd" d="M904.689,413.032 L941.594,726.722 L904.689,689.818 L904.689,413.032"/>
<path vector-effect="none" fill-rule="evenodd" d="M421.237,376.127 L421.237,413.032 L318.492,413.032 L421.237,376.127"/>
<path vector-effect="none" fill-rule="evenodd" d="M421.237,376.127 L318.492,413.032 L281.587,376.127 L421.237,376.127"/>
<path vector-effect="none" fill-rule="evenodd" d="M281.587,376.127 L318.492,413.032 L318.492,995.856 L281.587,376.127"/>
<path vector-effect="none" fill-rule="evenodd" d="M281.587,376.127 L318.492,995.856 L281.587,995.856 L281.587,376.127"/>
<path vector-effect="none" fill-rule="evenodd" d="M923.142,413.032 L923.142,376.127 L1062.79,376.127 L923.142,413.032"/>
<path vector-effect="none" fill-rule="evenodd" d="M923.142,413.032 L1062.79,376.127 L1025.89,413.032 L923.142,413.032"/>
<path vector-effect="none" fill-rule="evenodd" d="M1025.89,413.032 L1062.79,376.127 L1062.79,995.856 L1025.89,413.032"/>
<path vector-effect="none" fill-rule="evenodd" d="M1025.89,413.032 L1062.79,995.856 L1025.89,995.856 L1025.89,413.032"/>
<path vector-effect="none" fill-rule="evenodd" d="M653.737,708.27 L690.642,708.27 L690.642,941.933 L653.737,708.27"/>
<path vector-effect="none" fill-rule="evenodd" d="M653.737,708.27 L690.642,941.933 L653.737,941.933 L653.737,708.27"/>
<path vector-effect="none" fill-rule="evenodd" d="M462.491,960.386 L462.491,923.481 L881.887,923.481 L462.491,960.386"/>
<path vector-effect="none" fill-rule="evenodd" d="M462.491,960.386 L881.887,923.481 L881.887,960.386 L462.491,960.386"/>
</g>

<g fill="#0000ff" fill-opacity="1" stroke="none" transform="matrix(1,0,0,1,0,0)"
font-family="Sans" font-size="41.6667" font-weight="400" font-style="normal" 
>
<path vector-effect="none" fill-rule="evenodd" d="M878.887,938.933 L884.887,938.933 L884.887,944.933 L878.887,944.933 L878.887,938.933"/>
</g>

<g fill="#0000ff" fill-opacity="1" stroke="#0000ff" stroke-opacity="1" stroke-width="6" stroke-linecap="square" stroke-linejoin="bevel" transform="matrix(1,0,0,1,0,0)"
font-family="Sans" font-size="41.6667" font-weight="400" font-style="normal" 
>
<path vector-effect="none" fill-rule="evenodd" d="M444.039,941.933 L480.944,941.933 L480.944,1547.06 L444.039,941.933"/>
<path vector-effect="none" fill-rule="evenodd" d="M444.039,941.933 L480.944,1547.06 L444.039,1547.06 L444.039,941.933"/>
<path vector-effect="none" fill-rule="evenodd" d="M863.435,941.933 L900.34,941.933 L900.34,1547.06 L863.435,941.933"/>
<path vector-effect="none" fill-rule="evenodd" d="M863.435,941.933 L900.34,1547.06 L863.435,1547.06 L863.435,941.933"/>
<path vector-effect="none" fill-rule="evenodd" d="M548.838,222.29 L548.838,185.386 L795.541,185.386 L548.838,222.29"/>
<path vector-effect="none" fill-rule="evenodd" d="M548.838,222.29 L795.541,185.386 L795.541,222.29 L548.838,222.29"/>
<path vector-effect="none" fill-rule="evenodd" d="M653.737,203.838 L690.642,203.838 L690.642,394.579 L653.737,203.838"/>
<path vector-effect="none" fill-rule="evenodd" d="M653.737,203.838 L690.642,394.579 L653.737,394.579 L653.737,203.838"/>
</g>

<g fill="#000000" fill-opacity="1" stroke="#000000" stroke-opacity="1" stroke-width="6" stroke-linecap="square" stroke-linejoin="bevel" transform="matrix(1,0,0,1,0,0)"
font-family="Sans" font-size="41.6667" font-weight="400" font-style="normal" 
>
<polyline fill="none" vector-effect="none" points="671.728,203.838 525.212,203.838 " />
<polyline fill="none" vector-effect="none" points="526.134,222.29 526.134,923.481 " />
<polyline fill="none" vector-effect="none" points="671.728,941.933 525.212,941.933 " />
<path vector-effect="none" fill-rule="evenodd" d="M523.059,923.481 L529.21,923.481 L526.134,941.933 L523.059,923.481"/>
<path vector-effect="none" fill-rule="evenodd" d="M529.21,222.29 L523.059,222.29 L526.134,203.838 L529.21,222.29"/>
</g>

<g fill="#000000" fill-opacity="1" stroke="#000000" stroke-opacity="1" stroke-width="6" stroke-linecap="round" stroke-linejoin="bevel" transform="matrix(1,0,0,1,0,0)"
font-family="Sans" font-size="41.6667" font-weight="400" font-style="normal" 
>
<polyline fill="none" vector-effect="none" points="495.688,635.598 494.15,632.138 488.768,626.756 525.673,626.756 " />
<polyline fill="none" vector-effect="none" points="525.673,597.1 525.673,593.256 523.751,588.259 518.753,584.799 509.912,582.877 504.53,582.877 495.688,584.799 490.69,588.259 488.768,593.256 488.768,597.1 490.69,602.098 495.688,605.558 504.53,607.48 509.912,607.48 518.753,605.558 523.751,602.098 525.673,597.1 " />
<polyline fill="none" vector-effect="none" points="525.673,561.953 525.673,558.109 523.751,553.111 518.753,549.651 509.912,547.729 504.53,547.729 495.688,549.651 490.69,553.111 488.768,558.109 488.768,561.953 490.69,566.95 495.688,570.41 504.53,572.332 509.912,572.332 518.753,570.41 523.751,566.95 525.673,561.953 " />
<polyline fill="none" vector-effect="none" points="525.673,526.806 525.673,522.961 523.751,517.964 518.753,514.504 509.912,512.582 504.53,512.582 495.688,514.504 490.69,517.964 488.768,522.961 488.768,526.806 490.69,531.803 495.688,535.263 504.53,537.185 509.912,537.185 518.753,535.263 523.751,531.803 525.673,526.806 " />
</g>

<g fill="#0000ff" fill-opacity="1" stroke="#0000ff" stroke-opacity="1" stroke-width="6" stroke-linecap="square" stroke-linejoin="bevel" transform="matrix(1,0,0,1,0,0)"
font-family="Sans" font-size="41.6667" font-weight="400" font-style="normal" 
>
<polyline fill="none" vector-effect="none" points="1507.46,1550.59 1507.46,945.458 " />
<polyline fill="none" vector-effect="none" points="1507.46,945.458 1507.46,711.794 " />
<polyline fill="none" vector-effect="none" points="1507.46,711.794 1507.46,398.104 " />
<polyline fill="none" vector-effect="none" points="1507.46,398.104 1507.46,207.362 " />
<path vector-effect="none" fill-rule="evenodd" d="M1470.55,945.458 L1544.36,945.458 L1544.36,1550.59 L1470.55,945.458"/>
<path vector-effect="none" fill-rule="evenodd" d="M1470.55,945.458 L1544.36,1550.59 L1470.55,1550.59 L1470.55,945.458"/>
<path vector-effect="none" fill-rule="evenodd" d="M1525.91,945.458 L1489,945.458 L1489,711.794 L1525.91,945.458"/>
<path vector-effect="none" fill-rule="evenodd" d="M1525.91,945.458 L1489,711.794 L1525.91,711.794 L1525.91,945.458"/>
<path vector-effect="none" fill-rule="evenodd" d="M1562.81,711.794 L1452.1,711.794 L1452.1,398.104 L1562.81,711.794"/>
<path vector-effect="none" fill-rule="evenodd" d="M1562.81,711.794 L1452.1,398.104 L1562.81,398.104 L1562.81,711.794"/>
<path vector-effect="none" fill-rule="evenodd" d="M1525.91,398.104 L1489,398.104 L1489,207.362 L1525.91,398.104"/>
<path vector-effect="none" fill-rule="evenodd" d="M1525.91,398.104 L1489,207.362 L1525.91,207.362 L1525.91,398.104"/>
<polyline fill="none" vector-effect="none" points="1507.46,207.362 1630.56,207.362 " />
</g>

<g fill="#ff0000" fill-opacity="1" stroke="#ff0000" stroke-opacity="1" stroke-width="6" stroke-linecap="square" stroke-linejoin="bevel" transform="matrix(1,0,0,1,0,0)"
font-family="Sans" font-size="41.6667" font-weight="400" font-style="normal" 
>
</g>

<g fill="none" stroke="#ff0000" stroke-opacity="1" stroke-width="6" stroke-linecap="square" stroke-linejoin="bevel" transform="matrix(1,0,0,1,2219.71,618.584)"
font-family="Sans" font-size="41.6667" font-weight="400" font-style="normal" 
>
<path vector-effect="none" fill-rule="evenodd" d="M82.2832,0 C82.2832,-45.4438 45.4438,-82.2832 0,-82.2832 C-45.4438,-82.2832 -82.2832,-45.4438 -82.2832,0 C-82.2832,45.4438 -45.4438,82.2832 0,82.2832 C45.4438,82.2832 82.2832,45.4438 82.2832,0 "/>
</g>

<g fill="#ff0000" fill-opacity="1" stroke="#ff0000" stroke-opacity="1" stroke-width="6" stroke-linecap="square" stroke-linejoin="bevel" transform="matrix(1,0,0,1,0,0)"
font-family="Sans" font-size="41.6667" font-weight="400" font-style="normal" 
>
</g>

<g fill="#000000" fill-opacity="1" stroke="#000000" stroke-opacity="1" stroke-width="6" stroke-linecap="round" stroke-linejoin="bevel" transform="matrix(1,0,0,1,0,0)"
font-family="Sans" font-size="41.6667" font-weight="400" font-style="normal" 
>
<polyline fill="none" vector-effect="none" points="2141.19,786.135 2137.73,782.676 2134.27,777.294 2130.81,770.374 2128.88,761.532 2128.88,754.613 2130.81,745.771 2134.27,738.851 2137.73,733.469 2141.19,730.009 " />
<polyline fill="none" vector-effect="none" points="2163.87,773.834 2167.71,773.834 2172.71,771.912 2176.17,766.914 2178.09,758.072 2178.09,752.69 2176.17,743.849 2172.71,738.851 2167.71,736.929 2163.87,736.929 2158.87,738.851 2155.41,743.849 2153.49,752.69 2153.49,758.072 2155.41,766.914 2158.87,771.912 2163.87,773.834 " />
<polyline fill="none" vector-effect="none" points="2188.63,740.389 2190.56,738.851 2192.09,735.007 2192.09,731.547 2190.56,730.009 2188.63,731.547 2190.56,733.469 2192.09,731.547 " />
<polyline fill="none" vector-effect="none" points="2225.59,736.929 2207.91,736.929 2206.37,752.69 2207.91,751.153 2213.29,749.231 2218.67,749.231 2223.67,751.153 2227.13,754.613 2229.05,759.61 2229.05,763.454 2227.13,768.452 2223.67,771.912 2218.67,773.834 2213.29,773.834 2207.91,771.912 2206.37,770.374 2204.45,766.914 " />
<polyline fill="none" vector-effect="none" points="2239.6,780.753 2241.52,779.216 2243.06,775.756 2243.06,771.912 2241.52,770.374 2239.6,771.912 2241.52,773.834 2243.06,771.912 " />
<polyline fill="none" vector-effect="none" points="2267.55,773.834 2271.4,773.834 2276.39,771.912 2279.85,766.914 2281.77,758.072 2281.77,752.69 2279.85,743.849 2276.39,738.851 2271.4,736.929 2267.55,736.929 2262.55,738.851 2259.09,743.849 2257.17,752.69 2257.17,758.072 2259.09,766.914 2262.55,771.912 2267.55,773.834 " />
<polyline fill="none" vector-effect="none" points="2292.32,740.389 2294.24,738.851 2295.78,735.007 2295.78,731.547 2294.24,730.009 2292.32,731.547 2294.24,733.469 2295.78,731.547 " />
<polyline fill="none" vector-effect="none" points="2329.28,736.929 2311.59,736.929 2310.06,752.69 2311.59,751.153 2316.98,749.231 2322.36,749.231 2327.36,751.153 2330.82,754.613 2332.74,759.61 2332.74,763.454 2330.82,768.452 2327.36,771.912 2322.36,773.834 2316.98,773.834 2311.59,771.912 2310.06,770.374 2308.14,766.914 " />
<polyline fill="none" vector-effect="none" points="2343.28,780.753 2345.2,779.216 2346.74,775.756 2346.74,771.912 2345.2,770.374 2343.28,771.912 2345.2,773.834 2346.74,771.912 " />
<polyline fill="none" vector-effect="none" points="2360.86,743.849 2364.32,742.311 2369.7,736.929 2369.7,773.834 " />
<polyline fill="none" vector-effect="none" points="2388.97,786.135 2392.43,782.676 2395.89,777.294 2399.35,770.374 2401.28,761.532 2401.28,754.613 2399.35,745.771 2395.89,738.851 2392.43,733.469 2388.97,730.009 " />
</g>

<g fill="#ff0000" fill-opacity="1" stroke="#ff0000" stroke-opacity="1" stroke-width="6" stroke-linecap="square" stroke-linejoin="bevel" transform="matrix(1,0,0,1,0,0)"
font-family="Sans" font-size="41.6667" font-weight="400" font-style="normal" 
>
<path vector-effect="none" fill-rule="evenodd" d="M671.728,862.959 L671.728,855.578 L675.143,855.578 L671.728,862.959"/>
<path vector-effect="none" fill-rule="evenodd" d="M671.728,862.959 L675.143,855.578 L686.087,862.959 L671.728,862.959"/>
<path vector-effect="none" fill-rule="evenodd" d="M686.087,862.959 L675.143,855.578 L671.728,847.128 L686.087,862.959"/>
<path vector-effect="none" fill-rule="evenodd" d="M686.087,862.959 L671.728,847.128 L671.728,827.43 L686.087,862.959"/>
<path vector-effect="none" fill-rule="evenodd" d="M671.728,827.43 L671.728,847.128 L668.313,855.578 L671.728,827.43"/>
<path vector-effect="none" fill-rule="evenodd" d="M671.728,827.43 L668.313,855.578 L657.369,862.959 L671.728,827.43"/>
<path vector-effect="none" fill-rule="evenodd" d="M657.369,862.959 L668.313,855.578 L671.728,855.578 L657.369,862.959"/>
<path vector-effect="none" fill-rule="evenodd" d="M657.369,862.959 L671.728,855.578 L671.728,862.959 L657.369,862.959"/>
<path vector-effect="none" fill-rule="evenodd" d="M668.037,837.279 L675.418,837.279 L675.418,941.933 L668.037,837.279"/>
<path vector-effect="none" fill-rule="evenodd" d="M668.037,837.279 L675.418,941.933 L668.037,941.933 L668.037,837.279"/>
</g>

<g fill="#ff0000" fill-opacity="1" stroke="#ff0000" stroke-opacity="1" stroke-width="6" stroke-linecap="round" stroke-linejoin="bevel" transform="matrix(1,0,0,1,0,0)"
font-family="Sans" font-size="41.6667" font-weight="400" font-style="normal" 
>
<polyline fill="none" vector-effect="none" points="685.527,930.676 697.828,912.224 " />
<polyline fill="none" vector-effect="none" points="685.527,912.224 697.828,930.676 " />
<polyline fill="none" vector-effect="none" points="703.101,915.684 704.83,914.915 707.521,912.224 707.521,930.676 " />
<polyline fill="none" vector-effect="none" points="689.536,849.671 701.838,849.671 689.536,868.124 701.838,868.124 " />
<polyline fill="none" vector-effect="none" points="707.11,853.131 708.84,852.362 711.531,849.671 711.531,868.124 " />
</g>

<g fill="#ff0000" fill-opacity="1" stroke="#ff0000" stroke-opacity="1" stroke-width="6" stroke-linecap="square" stroke-linejoin="bevel" transform="matrix(1,0,0,1,0,0)"
font-family="Sans" font-size="41.6667" font-weight="400" font-style="normal" 
>
</g>

<g fill="none" stroke="#ff0000" stroke-opacity="1" stroke-width="6" stroke-linecap="square" stroke-linejoin="bevel" transform="matrix(1,0,0,1,671.728,941.933)"
font-family="Sans" font-size="41.6667" font-weight="400" font-style="normal" 
>
<path vector-effect="none" fill-rule="evenodd" d="M17.8082,0 C17.8082,-9.83519 9.83519,-17.8082 0,-17.8082 C-9.83519,-17.8082 -17.8082,-9.83519 -17.8082,0 C-17.8082,9.83519 -9.83519,17.8082 0,17.8082 C9.83519,17.8082 17.8082,9.83519 17.8082,0 "/>
</g>

<g fill="#ff0000" fill-opacity="1" stroke="#ff0000" stroke-opacity="1" stroke-width="6" stroke-linecap="square" stroke-linejoin="bevel" transform="matrix(1,0,0,1,0,0)"
font-family="Sans" font-size="41.6667" font-weight="400" font-style="normal" 
>
</g>

<g fill="none" stroke="#ff0000" stroke-opacity="1" stroke-width="6" stroke-linecap="square" stroke-linejoin="bevel" transform="matrix(1,0,0,1,671.728,941.933)"
font-family="Sans" font-size="41.6667" font-weight="400" font-style="normal" 
>
<path vector-effect="none" fill-rule="evenodd" d="M4.45205,0 C4.45205,-2.4588 2.4588,-4.45205 0,-4.45205 C-2.4588,-4.45205 -4.45205,-2.4588 -4.45205,0 C-4.45205,2.4588 -2.4588,4.45205 0,4.45205 C2.4588,4.45205 4.45205,2.4588 4.45205,0 "/>
</g>

<g fill="#ff0000" fill-opacity="1" stroke="#ff0000" stroke-opacity="1" stroke-width="6" stroke-linecap="square" stroke-linejoin="bevel" transform="matrix(1,0,0,1,0,0)"
font-family="Sans" font-size="41.6667" font-weight="400" font-style="normal" 
>
</g>

<g fill="#000000" fill-opacity="1" stroke="#000000" stroke-opacity="1" stroke-width="6" stroke-linecap="square" stroke-linejoin="bevel" transform="matrix(1,0,0,1,0,0)"
font-family="Sans" font-size="41.6667" font-weight="400" font-style="normal" 
>
<polyline fill="none" vector-effect="none" points="1614.46,269.142 2219.71,618.584 " />
<polyline fill="none" vector-effect="none" points="1631.02,207.362 2329.9,207.362 " />
</g>

<g fill="none" stroke="#000000" stroke-opacity="1" stroke-width="6" stroke-linecap="square" stroke-linejoin="bevel" transform="matrix(0.877037,0.480423,-0.480423,0.877037,1507.46,207.362)"
font-family="Sans" font-size="41.6667" font-weight="400" font-style="normal" 
>
<path vector-effect="none" fill-rule="evenodd" d="M821.521,0 C821.521,-136.536 788.213,-265.293 729.278,-378.588 "/>
</g>

<g fill="#000000" fill-opacity="1" stroke="#000000" stroke-opacity="1" stroke-width="6" stroke-linecap="square" stroke-linejoin="bevel" transform="matrix(1,0,0,1,0,0)"
font-family="Sans" font-size="41.6667" font-weight="400" font-style="normal" 
>
<path vector-effect="none" fill-rule="evenodd" d="M2331.85,225.848 L2325.7,225.779 L2328.98,207.362 L2331.85,225.848"/>
</g>

<g fill="#000000" fill-opacity="1" stroke="#000000" stroke-opacity="1" stroke-width="6" stroke-linecap="round" stroke-linejoin="bevel" transform="matrix(1,0,0,1,0,0)"
font-family="Sans" font-size="41.6667" font-weight="400" font-style="normal" 
>
<polyline fill="none" vector-effect="none" points="2255.8,444.266 2260.77,425.7 2271.82,439.407 2273.22,434.209 2275.6,431.265 2277.85,430.277 2283.18,429.714 2286.89,430.709 2291.22,433.859 2293.67,438.096 2294.23,443.421 2292.84,448.62 2289.59,453.321 2287.7,454.408 2283.86,455.369 " />
<polyline fill="none" vector-effect="none" points="2302.33,413.184 2303.33,409.471 2302.76,404.147 2298.83,399.511 2290.79,395.366 2285.59,393.973 2276.55,393.541 2270.83,395.59 2267.68,399.92 2266.68,403.633 2267.25,408.958 2271.18,413.593 2279.22,417.738 2284.42,419.131 2293.46,419.563 2299.18,417.514 2302.33,413.184 " />
<polyline fill="none" vector-effect="none" points="2280.57,378.529 2280.87,377.415 2280.8,376.202 2280.26,375.26 2279.34,374.219 2277.48,373.721 2275.8,374.066 2274.76,374.981 2274.09,375.996 2273.89,376.738 2273.96,377.952 2274.41,379.265 2275.69,380.405 2277.18,380.803 2278.86,380.459 2279.8,379.915 2280.57,378.529 " />
</g>

<g fill="#000000" fill-opacity="1" stroke="#000000" stroke-opacity="1" stroke-width="6" stroke-linecap="square" stroke-linejoin="bevel" transform="matrix(1,0,0,1,0,0)"
font-family="Sans" font-size="41.6667" font-weight="400" font-style="normal" 
>
<path vector-effect="none" fill-rule="evenodd" d="M2225.28,600.532 L2230.64,603.548 L2218.91,618.123 L2225.28,600.532"/>
</g>

<g fill="#ff0000" fill-opacity="1" stroke="#ff0000" stroke-opacity="1" stroke-width="6" stroke-linecap="square" stroke-linejoin="bevel" transform="matrix(1,0,0,1,0,0)"
font-family="Sans" font-size="41.6667" font-weight="400" font-style="normal" 
>
</g>

<g fill="none" stroke="#ff0000" stroke-opacity="1" stroke-width="6" stroke-linecap="square" stroke-linejoin="bevel" transform="matrix(1,0,0,1,672.189,203.838)"
font-family="Sans" font-size="41.6667" font-weight="400" font-style="normal" 
>
<path vector-effect="none" fill-rule="evenodd" d="M17.8082,0 C17.8082,-9.83519 9.83519,-17.8082 0,-17.8082 C-9.83519,-17.8082 -17.8082,-9.83519 -17.8082,0 C-17.8082,9.83519 -9.83519,17.8082 0,17.8082 C9.83519,17.8082 17.8082,9.83519 17.8082,0 "/>
</g>

<g fill="#ff0000" fill-opacity="1" stroke="#ff0000" stroke-opacity="1" stroke-width="6" stroke-linecap="square" stroke-linejoin="bevel" transform="matrix(1,0,0,1,0,0)"
font-family="Sans" font-size="41.6667" font-weight="400" font-style="normal" 
>
</g>

<g fill="none" stroke="#ff0000" stroke-opacity="1" stroke-width="6" stroke-linecap="square" stroke-linejoin="bevel" transform="matrix(1,0,0,1,672.189,203.838)"
font-family="Sans" font-size="41.6667" font-weight="400" font-style="normal" 
>
<path vector-effect="none" fill-rule="evenodd" d="M4.45205,0 C4.45205,-2.4588 2.4588,-4.45205 0,-4.45205 C-2.4588,-4.45205 -4.45205,-2.4588 -4.45205,0 C-4.45205,2.4588 -2.4588,4.45205 0,4.45205 C2.4588,4.45205 4.45205,2.4588 4.45205,0 "/>
</g>

<g fill="#ff0000" fill-opacity="1" stroke="#ff0000" stroke-opacity="1" stroke-width="6" stroke-linecap="square" stroke-linejoin="bevel" transform="matrix(1,0,0,1,0,0)"
font-family="Sans" font-size="41.6667" font-weight="400" font-style="normal" 
>
</g>

<g fill="#ff0000" fill-opacity="1" stroke="#ff0000" stroke-opacity="1" stroke-width="6" stroke-linecap="round" stroke-linejoin="bevel" transform="matrix(1,0,0,1,0,0)"
font-family="Sans" font-size="41.6667" font-weight="400" font-style="normal" 
>
<polyline fill="none" vector-effect="none" points="685.988,174.129 698.29,174.129 685.988,192.581 698.29,192.581 " />
<polyline fill="none" vector-effect="none" points="704.523,178.55 704.523,177.588 705.292,175.859 706.253,175.09 707.983,174.129 711.443,174.129 713.173,175.09 714.134,175.859 714.902,177.588 714.902,179.318 714.134,181.24 712.404,183.739 703.562,192.581 715.863,192.581 " />
<polyline fill="none" vector-effect="none" points="689.997,111.576 697.109,120.418 697.109,130.029 " />
<polyline fill="none" vector-effect="none" points="697.109,120.418 704.029,111.576 " />
<polyline fill="none" vector-effect="none" points="708.532,115.997 708.532,115.036 709.301,113.306 710.262,112.537 711.992,111.576 715.452,111.576 717.182,112.537 718.143,113.306 718.912,115.036 718.912,116.766 718.143,118.688 716.413,121.187 707.571,130.029 719.873,130.029 " />
</g>

<g fill="#ff0000" fill-opacity="1" stroke="#ff0000" stroke-opacity="1" stroke-width="6" stroke-linecap="square" stroke-linejoin="bevel" transform="matrix(1,0,0,1,0,0)"
font-family="Sans" font-size="41.6667" font-weight="400" font-style="normal" 
>
<path vector-effect="none" fill-rule="evenodd" d="M672.189,124.864 L672.189,117.483 L675.604,117.483 L672.189,124.864"/>
<path vector-effect="none" fill-rule="evenodd" d="M672.189,124.864 L675.604,117.483 L686.548,124.864 L672.189,124.864"/>
<path vector-effect="none" fill-rule="evenodd" d="M686.548,124.864 L675.604,117.483 L672.189,109.033 L686.548,124.864"/>
<path vector-effect="none" fill-rule="evenodd" d="M686.548,124.864 L672.189,109.033 L672.189,89.3348 L686.548,124.864"/>
<path vector-effect="none" fill-rule="evenodd" d="M672.189,89.3348 L672.189,109.033 L668.774,117.483 L672.189,89.3348"/>
<path vector-effect="none" fill-rule="evenodd" d="M672.189,89.3348 L668.774,117.483 L657.83,124.864 L672.189,89.3348"/>
<path vector-effect="none" fill-rule="evenodd" d="M657.83,124.864 L668.774,117.483 L672.189,117.483 L657.83,124.864"/>
<path vector-effect="none" fill-rule="evenodd" d="M657.83,124.864 L672.189,117.483 L672.189,124.864 L657.83,124.864"/>
<path vector-effect="none" fill-rule="evenodd" d="M668.499,99.1839 L675.88,99.1839 L675.88,203.838 L668.499,99.1839"/>
<path vector-effect="none" fill-rule="evenodd" d="M668.499,99.1839 L675.88,203.838 L668.499,203.838 L668.499,99.1839"/>
<path vector-effect="none" fill-rule="evenodd" d="M751.164,941.933 L758.545,941.933 L758.545,945.348 L751.164,941.933"/>
<path vector-effect="none" fill-rule="evenodd" d="M751.164,941.933 L758.545,945.348 L751.164,956.292 L751.164,941.933"/>
<path vector-effect="none" fill-rule="evenodd" d="M751.164,956.292 L758.545,945.348 L766.994,941.933 L751.164,956.292"/>
<path vector-effect="none" fill-rule="evenodd" d="M751.164,956.292 L766.994,941.933 L786.693,941.933 L751.164,956.292"/>
<path vector-effect="none" fill-rule="evenodd" d="M786.693,941.933 L766.994,941.933 L758.545,938.518 L786.693,941.933"/>
<path vector-effect="none" fill-rule="evenodd" d="M786.693,941.933 L758.545,938.518 L751.164,927.574 L786.693,941.933"/>
<path vector-effect="none" fill-rule="evenodd" d="M751.164,927.574 L758.545,938.518 L758.545,941.933 L751.164,927.574"/>
<path vector-effect="none" fill-rule="evenodd" d="M751.164,927.574 L758.545,941.933 L751.164,941.933 L751.164,927.574"/>
<path vector-effect="none" fill-rule="evenodd" d="M776.843,938.243 L776.843,945.624 L672.189,945.624 L776.843,938.243"/>
<path vector-effect="none" fill-rule="evenodd" d="M776.843,938.243 L672.189,945.624 L672.189,938.243 L776.843,938.243"/>
</g>

<g fill="#ff0000" fill-opacity="1" stroke="#ff0000" stroke-opacity="1" stroke-width="6" stroke-linecap="round" stroke-linejoin="bevel" transform="matrix(1,0,0,1,0,0)"
font-family="Sans" font-size="41.6667" font-weight="400" font-style="normal" 
>
<polyline fill="none" vector-effect="none" points="764.17,958.635 771.282,967.477 771.282,977.087 " />
<polyline fill="none" vector-effect="none" points="771.282,967.477 778.201,958.635 " />
<polyline fill="none" vector-effect="none" points="781.743,962.095 783.473,961.326 786.164,958.635 786.164,977.087 " />
</g>

<g fill="#ff0000" fill-opacity="1" stroke="#ff0000" stroke-opacity="1" stroke-width="6" stroke-linecap="square" stroke-linejoin="bevel" transform="matrix(1,0,0,1,0,0)"
font-family="Sans" font-size="41.6667" font-weight="400" font-style="normal" 
>
<path vector-effect="none" fill-rule="evenodd" d="M750.702,203.838 L758.083,203.838 L758.083,207.253 L750.702,203.838"/>
<path vector-effect="none" fill-rule="evenodd" d="M750.702,203.838 L758.083,207.253 L750.702,218.197 L750.702,203.838"/>
<path vector-effect="none" fill-rule="evenodd" d="M750.702,218.197 L758.083,207.253 L766.533,203.838 L750.702,218.197"/>
<path vector-effect="none" fill-rule="evenodd" d="M750.702,218.197 L766.533,203.838 L786.231,203.838 L750.702,218.197"/>
<path vector-effect="none" fill-rule="evenodd" d="M786.231,203.838 L766.533,203.838 L758.083,200.423 L786.231,203.838"/>
<path vector-effect="none" fill-rule="evenodd" d="M786.231,203.838 L758.083,200.423 L750.702,189.479 L786.231,203.838"/>
<path vector-effect="none" fill-rule="evenodd" d="M750.702,189.479 L758.083,200.423 L758.083,203.838 L750.702,189.479"/>
<path vector-effect="none" fill-rule="evenodd" d="M750.702,189.479 L758.083,203.838 L750.702,203.838 L750.702,189.479"/>
<path vector-effect="none" fill-rule="evenodd" d="M776.382,200.148 L776.382,207.529 L671.728,207.529 L776.382,200.148"/>
<path vector-effect="none" fill-rule="evenodd" d="M776.382,200.148 L671.728,207.529 L671.728,200.148 L776.382,200.148"/>
</g>

<g fill="#ff0000" fill-opacity="1" stroke="#ff0000" stroke-opacity="1" stroke-width="6" stroke-linecap="round" stroke-linejoin="bevel" transform="matrix(1,0,0,1,0,0)"
font-family="Sans" font-size="41.6667" font-weight="400" font-style="normal" 
>
<polyline fill="none" vector-effect="none" points="763.708,238.992 776.01,220.54 " />
<polyline fill="none" vector-effect="none" points="763.708,220.54 776.01,238.992 " />
<polyline fill="none" vector-effect="none" points="782.243,224.961 782.243,224 783.012,222.27 783.973,221.501 785.703,220.54 789.163,220.54 790.893,221.501 791.854,222.27 792.623,224 792.623,225.729 791.854,227.652 790.124,230.15 781.282,238.992 793.584,238.992 " />
</g>

<g fill="#ff0000" fill-opacity="1" stroke="#ff0000" stroke-opacity="1" stroke-width="6" stroke-linecap="round" stroke-linejoin="bevel" transform="matrix(1,0,0,1,0,0)"
font-family="Sans" font-size="41.6667" font-weight="400" font-style="normal" 
>
</g>

<g fill="#ff0000" fill-opacity="1" stroke="#ff0000" stroke-opacity="1" stroke-width="6" stroke-linecap="round" stroke-linejoin="bevel" transform="matrix(1,0,0,1,0,0)"
font-family="Sans" font-size="41.6667" font-weight="400" font-style="normal" 
>
</g>

<g fill="none" stroke="#000000" stroke-opacity="1" stroke-width="1" stroke-linecap="square" stroke-linejoin="bevel" transform="matrix(1,0,0,1,0,0)"
font-family="Sans" font-size="41.6667" font-weight="400" font-style="normal" 
>
</g>

<g fill="#000000" fill-opacity="1" stroke="#000000" stroke-opacity="1" stroke-width="1" stroke-linecap="butt" stroke-linejoin="miter" stroke-miterlimit="2" transform="matrix(1,0,0,1,0,0)"
font-family="Sans" font-size="41.6667" font-weight="400" font-style="normal" 
>
</g>

<g fill="#000000" fill-opacity="1" stroke="#000000" stroke-opacity="1" stroke-width="1" stroke-linecap="square" stroke-linejoin="bevel" transform="matrix(1,0,0,1,0,0)"
font-family="Sans" font-size="41.6667" font-weight="400" font-style="normal" 
>
<polyline fill="none" vector-effect="non-scaling-stroke" points="9.44762,1738.46 9.44762,14.976 2465.19,14.976 2465.19,1738.46 9.44762,1738.46 " />
</g>

<g fill="#000000" fill-opacity="1" stroke="#000000" stroke-opacity="1" stroke-width="1" stroke-linecap="square" stroke-linejoin="bevel" transform="matrix(1,0,0,1,0,0)"
font-family="Sans" font-size="41.6667" font-weight="400" font-style="normal" 
>
</g>

<g fill="#000000" fill-opacity="1" stroke="#000000" stroke-opacity="1" stroke-width="1" stroke-linecap="square" stroke-linejoin="bevel" transform="matrix(1,0,0,1,0,0)"
font-family="Sans" font-size="41.6667" font-weight="400" font-style="normal" 
>
</g>

<g fill="none" stroke="#000000" stroke-opacity="1" stroke-width="1" stroke-linecap="square" stroke-linejoin="bevel" transform="matrix(1,0,0,1,0,0)"
font-family="Sans" font-size="41.6667" font-weight="400" font-style="normal" 
>
</g>
</g>
</svg>
