<?xml version="1.0" encoding="UTF-8" standalone="no"?>
<svg width="209.973mm" height="147.997mm"
 viewBox="0 0 2480 1748"
 xmlns="http://www.w3.org/2000/svg" xmlns:xlink="http://www.w3.org/1999/xlink"  version="1.2" baseProfile="tiny">
<title>Qt SVG Document</title>
<desc>Generated with Qt</desc>
<defs>
</defs>
<g fill="none" stroke="black" stroke-width="1" fill-rule="evenodd" stroke-linecap="square" stroke-linejoin="bevel" >

<g fill="none" stroke="#000000" stroke-opacity="1" stroke-width="1" stroke-linecap="square" stroke-linejoin="bevel" transform="matrix(1,0,0,1,0,0)"
font-family="Sans" font-size="41.6667" font-weight="400" font-style="normal" 
>
</g>

<g fill="#ffffff" fill-opacity="1" stroke="none" transform="matrix(1,0,0,1,0,0)"
font-family="Sans" font-size="41.6667" font-weight="400" font-style="normal" 
>
<path vector-effect="none" fill-rule="evenodd" d="M0,0 L2480,0 L2480,1748 L0,1748 L0,0"/>
</g>

<g fill="none" stroke="#000000" stroke-opacity="1" stroke-width="1" stroke-linecap="square" stroke-linejoin="bevel" transform="matrix(1,0,0,1,0,0)"
font-family="Sans" font-size="41.6667" font-weight="400" font-style="normal" 
>
</g>

<g fill="#000000" fill-opacity="1" stroke="#000000" stroke-opacity="1" stroke-width="1" stroke-linecap="butt" stroke-linejoin="miter" stroke-miterlimit="2" transform="matrix(1,0,0,1,0,0)"
font-family="Sans" font-size="41.6667" font-weight="400" font-style="normal" 
>
</g>

<g fill="#000000" fill-opacity="1" stroke="#000000" stroke-opacity="1" stroke-width="6" stroke-linecap="square" stroke-linejoin="bevel" transform="matrix(1,0,0,1,0,0)"
font-family="Sans" font-size="41.6667" font-weight="400" font-style="normal" 
>
<polyline fill="none" vector-effect="none" points="666.377,1486.07 666.377,305.122 " />
<polyline fill="none" vector-effect="none" points="666.377,305.122 680.624,329.797 " />
<polyline fill="none" vector-effect="none" points="680.624,329.797 666.377,329.797 " />
<polyline fill="none" vector-effect="none" points="666.377,305.122 652.131,329.797 " />
<polyline fill="none" vector-effect="none" points="652.131,329.797 666.377,329.797 " />
</g>

<g fill="#00ff00" fill-opacity="1" stroke="#00ff00" stroke-opacity="1" stroke-width="6" stroke-linecap="square" stroke-linejoin="bevel" transform="matrix(1,0,0,1,0,0)"
font-family="Sans" font-size="41.6667" font-weight="400" font-style="normal" 
>
</g>

<g fill="none" stroke="#00ff00" stroke-opacity="1" stroke-width="6" stroke-linecap="square" stroke-linejoin="bevel" transform="matrix(1,0,0,1,666.377,1486.07)"
font-family="Sans" font-size="41.6667" font-weight="400" font-style="normal" 
>
<path vector-effect="none" fill-rule="evenodd" d="M7.38095,0 C7.38095,-4.07639 4.07639,-7.38095 0,-7.38095 C-4.07639,-7.38095 -7.38095,-4.07639 -7.38095,0 C-7.38095,4.07639 -4.07639,7.38095 0,7.38095 C4.07639,7.38095 7.38095,4.07639 7.38095,0 "/>
</g>

<g fill="#00ff00" fill-opacity="1" stroke="#00ff00" stroke-opacity="1" stroke-width="6" stroke-linecap="square" stroke-linejoin="bevel" transform="matrix(1,0,0,1,0,0)"
font-family="Sans" font-size="41.6667" font-weight="400" font-style="normal" 
>
<path vector-effect="none" fill-rule="evenodd" d="M661.158,1491.29 L658.996,1486.07 L661.158,1480.85 L661.158,1491.29"/>
<path vector-effect="none" fill-rule="evenodd" d="M661.158,1491.29 L661.158,1480.85 L666.377,1493.45 L661.158,1491.29"/>
<path vector-effect="none" fill-rule="evenodd" d="M666.377,1493.45 L661.158,1480.85 L666.377,1478.69 L666.377,1493.45"/>
<path vector-effect="none" fill-rule="evenodd" d="M666.377,1493.45 L666.377,1478.69 L671.597,1491.29 L666.377,1493.45"/>
<path vector-effect="none" fill-rule="evenodd" d="M671.597,1491.29 L666.377,1478.69 L671.597,1480.85 L671.597,1491.29"/>
<path vector-effect="none" fill-rule="evenodd" d="M671.597,1491.29 L671.597,1480.85 L673.758,1486.07 L671.597,1491.29"/>
</g>

<g fill="#000000" fill-opacity="1" stroke="#000000" stroke-opacity="1" stroke-width="6" stroke-linecap="round" stroke-linejoin="bevel" transform="matrix(1,0,0,1,0,0)"
font-family="Sans" font-size="41.6667" font-weight="400" font-style="normal" 
>
<polyline fill="none" vector-effect="none" points="623.212,351.027 634.591,365.174 634.591,380.551 " />
<polyline fill="none" vector-effect="none" points="634.591,365.174 645.663,351.027 " />
</g>

<g fill="#000000" fill-opacity="1" stroke="#000000" stroke-opacity="1" stroke-width="6" stroke-linecap="square" stroke-linejoin="bevel" transform="matrix(1,0,0,1,0,0)"
font-family="Sans" font-size="41.6667" font-weight="400" font-style="normal" 
>
</g>

<g fill="none" stroke="#000000" stroke-opacity="1" stroke-width="6" stroke-linecap="square" stroke-linejoin="bevel" transform="matrix(1,0,0,1,666.377,1486.07)"
font-family="Sans" font-size="41.6667" font-weight="400" font-style="normal" 
>
<path vector-effect="none" fill-rule="evenodd" d="M177.143,0 C177.143,-48.9166 157.315,-93.2024 125.259,-125.259 "/>
</g>

<g fill="#000000" fill-opacity="1" stroke="#000000" stroke-opacity="1" stroke-width="6" stroke-linecap="square" stroke-linejoin="bevel" transform="matrix(1,0,0,1,0,0)"
font-family="Sans" font-size="41.6667" font-weight="400" font-style="normal" 
>
</g>

<g fill="#000000" fill-opacity="1" stroke="#000000" stroke-opacity="1" stroke-width="6" stroke-linecap="round" stroke-linejoin="bevel" transform="matrix(1,0,0,1,0,0)"
font-family="Sans" font-size="41.6667" font-weight="400" font-style="normal" 
>
<polyline fill="none" vector-effect="none" points="883.783,1416.25 889.626,1416.25 892.394,1414.72 895.162,1411.95 896.699,1409.18 897.93,1404.88 897.93,1398.11 896.699,1393.8 895.162,1391.04 892.394,1388.27 889.626,1386.73 883.783,1386.73 881.015,1388.27 878.247,1391.04 877.017,1393.8 875.479,1398.11 875.479,1404.88 877.017,1409.18 878.247,1411.95 881.015,1414.72 883.783,1416.25 " />
<polyline fill="none" vector-effect="none" points="882.245,1400.88 890.856,1400.88 " />
</g>

<g fill="#000000" fill-opacity="1" stroke="#000000" stroke-opacity="1" stroke-width="6" stroke-linecap="square" stroke-linejoin="bevel" transform="matrix(1,0,0,1,0,0)"
font-family="Sans" font-size="41.6667" font-weight="400" font-style="normal" 
>
<polyline fill="none" vector-effect="none" points="1847.33,1486.07 1822.65,1471.83 " />
<polyline fill="none" vector-effect="none" points="1822.65,1471.83 1822.65,1486.07 " />
<polyline fill="none" vector-effect="none" points="1847.33,1486.07 1822.65,1500.32 " />
<polyline fill="none" vector-effect="none" points="1822.65,1500.32 1822.65,1486.07 " />
</g>

<g fill="#000000" fill-opacity="1" stroke="#000000" stroke-opacity="1" stroke-width="6" stroke-linecap="round" stroke-linejoin="bevel" transform="matrix(1,0,0,1,0,0)"
font-family="Sans" font-size="41.6667" font-weight="400" font-style="normal" 
>
<polyline fill="none" vector-effect="none" points="1822.36,1543.6 1842.04,1514.08 " />
<polyline fill="none" vector-effect="none" points="1822.36,1514.08 1842.04,1543.6 " />
</g>

<g fill="#ff0000" fill-opacity="1" stroke="#ff0000" stroke-opacity="1" stroke-width="6" stroke-linecap="square" stroke-linejoin="bevel" transform="matrix(1,0,0,1,0,0)"
font-family="Sans" font-size="41.6667" font-weight="400" font-style="normal" 
>
<polyline fill="none" vector-effect="none" points="666.377,1486.07 1256.85,895.598 " />
<polyline fill="none" vector-effect="none" points="1256.85,895.598 1249.48,923.12 " />
<polyline fill="none" vector-effect="none" points="1256.85,895.598 1229.33,902.972 " />
</g>

<g fill="#000000" fill-opacity="1" stroke="#000000" stroke-opacity="1" stroke-width="6" stroke-linecap="square" stroke-linejoin="bevel" transform="matrix(1,0,0,1,0,0)"
font-family="Sans" font-size="41.6667" font-weight="400" font-style="normal" 
>
<polyline fill="none" vector-effect="none" points="666.377,1486.07 1847.33,1486.07 " />
</g>

<g fill="#ff0000" fill-opacity="1" stroke="#ff0000" stroke-opacity="1" stroke-width="6" stroke-linecap="square" stroke-linejoin="bevel" transform="matrix(1,0,0,1,0,0)"
font-family="Sans" font-size="41.6667" font-weight="400" font-style="normal" 
>
<polyline fill="none" vector-effect="none" points="666.377,1486.07 1501.44,1486.07 " />
<polyline fill="none" vector-effect="none" points="1501.44,1486.07 1476.76,1500.32 " />
<polyline fill="none" vector-effect="none" points="1501.44,1486.07 1476.76,1471.83 " />
</g>

<g fill="#ff0000" fill-opacity="1" stroke="#ff0000" stroke-opacity="1" stroke-width="6" stroke-linecap="round" stroke-linejoin="bevel" transform="matrix(1,0,0,1,0,0)"
font-family="Sans" font-size="41.6667" font-weight="400" font-style="normal" 
>
<polyline fill="none" vector-effect="none" points="1217.65,995.911 1217.65,1025.43 " />
<polyline fill="none" vector-effect="none" points="1217.65,1000.22 1220.42,997.448 1223.19,995.911 1227.49,995.911 1230.26,997.448 1233.03,1000.22 1234.57,1004.21 1234.57,1007.29 1233.03,1011.29 1230.26,1014.06 1227.49,1015.59 1223.19,1015.59 1220.42,1014.06 1217.65,1011.29 " />
<polyline fill="none" vector-effect="none" points="1244.36,988.837 1245.9,987.607 1247.13,984.532 1247.13,981.764 1245.9,980.534 1244.36,981.764 1245.9,983.302 1247.13,981.764 " />
<polyline fill="none" vector-effect="none" points="1266.86,1025.43 1264.09,1022.67 1261.32,1018.36 1258.55,1012.83 1257.02,1005.75 1257.02,1000.22 1258.55,993.143 1261.32,987.607 1264.09,983.302 1266.86,980.534 " />
<polyline fill="none" vector-effect="none" points="1276.7,1015.59 1292.08,995.911 " />
<polyline fill="none" vector-effect="none" points="1276.7,995.911 1292.08,1015.59 " />
<polyline fill="none" vector-effect="none" points="1300.6,988.837 1302.14,987.607 1303.37,984.532 1303.37,981.764 1302.14,980.534 1300.6,981.764 1302.14,983.302 1303.37,981.764 " />
<polyline fill="none" vector-effect="none" points="1313.25,1021.13 1314.79,1019.9 1316.02,1017.13 1316.02,1014.06 1314.79,1012.83 1313.25,1014.06 1314.79,1015.59 1316.02,1014.06 " />
<polyline fill="none" vector-effect="none" points="1327.31,1025.43 1331.62,1025.43 1332.85,1023.9 1337.15,1015.59 1345.46,995.911 " />
<polyline fill="none" vector-effect="none" points="1328.85,995.911 1337.15,1015.59 " />
<polyline fill="none" vector-effect="none" points="1349.81,988.837 1351.34,987.607 1352.57,984.532 1352.57,981.764 1351.34,980.534 1349.81,981.764 1351.34,983.302 1352.57,981.764 " />
<polyline fill="none" vector-effect="none" points="1362.46,1025.43 1365.23,1022.67 1367.99,1018.36 1370.76,1012.83 1372.3,1005.75 1372.3,1000.22 1370.76,993.143 1367.99,987.607 1365.23,983.302 1362.46,980.534 " />
<polyline fill="none" vector-effect="none" points="1482.61,1559.16 1482.61,1588.68 " />
<polyline fill="none" vector-effect="none" points="1482.61,1563.47 1485.38,1560.7 1488.14,1559.16 1492.45,1559.16 1495.22,1560.7 1497.98,1563.47 1499.52,1567.46 1499.52,1570.54 1497.98,1574.54 1495.22,1577.31 1492.45,1578.84 1488.14,1578.84 1485.38,1577.31 1482.61,1574.54 " />
<polyline fill="none" vector-effect="none" points="1519.16,1588.68 1516.39,1585.92 1513.63,1581.61 1510.86,1576.08 1509.32,1569 1509.32,1563.47 1510.86,1556.39 1513.63,1550.86 1516.39,1546.55 1519.16,1543.78 " />
<polyline fill="none" vector-effect="none" points="1529,1578.84 1544.38,1559.16 " />
<polyline fill="none" vector-effect="none" points="1529,1559.16 1544.38,1578.84 " />
<polyline fill="none" vector-effect="none" points="1552.9,1584.38 1554.44,1583.15 1555.67,1580.38 1555.67,1577.31 1554.44,1576.08 1552.9,1577.31 1554.44,1578.84 1555.67,1577.31 " />
<polyline fill="none" vector-effect="none" points="1566.96,1588.68 1571.27,1588.68 1572.5,1587.15 1576.8,1578.84 1585.11,1559.16 " />
<polyline fill="none" vector-effect="none" points="1568.5,1559.16 1576.8,1578.84 " />
<polyline fill="none" vector-effect="none" points="1589.46,1588.68 1592.22,1585.92 1594.99,1581.61 1597.76,1576.08 1599.3,1569 1599.3,1563.47 1597.76,1556.39 1594.99,1550.86 1592.22,1546.55 1589.46,1543.78 " />
</g>

<g fill="#ff0000" fill-opacity="1" stroke="#ff0000" stroke-opacity="1" stroke-width="6" stroke-linecap="round" stroke-linejoin="bevel" transform="matrix(1,0,0,1,0,0)"
font-family="Sans" font-size="41.6667" font-weight="400" font-style="normal" 
>
</g>

<g fill="#ff0000" fill-opacity="1" stroke="#ff0000" stroke-opacity="1" stroke-width="6" stroke-linecap="round" stroke-linejoin="bevel" transform="matrix(1,0,0,1,0,0)"
font-family="Sans" font-size="41.6667" font-weight="400" font-style="normal" 
>
</g>

<g fill="none" stroke="#000000" stroke-opacity="1" stroke-width="1" stroke-linecap="square" stroke-linejoin="bevel" transform="matrix(1,0,0,1,0,0)"
font-family="Sans" font-size="41.6667" font-weight="400" font-style="normal" 
>
</g>

<g fill="#000000" fill-opacity="1" stroke="#000000" stroke-opacity="1" stroke-width="1" stroke-linecap="butt" stroke-linejoin="miter" stroke-miterlimit="2" transform="matrix(1,0,0,1,0,0)"
font-family="Sans" font-size="41.6667" font-weight="400" font-style="normal" 
>
</g>

<g fill="#000000" fill-opacity="1" stroke="#000000" stroke-opacity="1" stroke-width="1" stroke-linecap="square" stroke-linejoin="bevel" transform="matrix(1,0,0,1,0,0)"
font-family="Sans" font-size="41.6667" font-weight="400" font-style="normal" 
>
<polyline fill="none" vector-effect="non-scaling-stroke" points="9.44762,1738.46 9.44762,17.4819 2446.48,17.4819 2446.48,1738.46 9.44762,1738.46 " />
</g>

<g fill="#000000" fill-opacity="1" stroke="#000000" stroke-opacity="1" stroke-width="1" stroke-linecap="square" stroke-linejoin="bevel" transform="matrix(1,0,0,1,0,0)"
font-family="Sans" font-size="41.6667" font-weight="400" font-style="normal" 
>
</g>

<g fill="#000000" fill-opacity="1" stroke="#000000" stroke-opacity="1" stroke-width="1" stroke-linecap="square" stroke-linejoin="bevel" transform="matrix(1,0,0,1,0,0)"
font-family="Sans" font-size="41.6667" font-weight="400" font-style="normal" 
>
</g>

<g fill="none" stroke="#000000" stroke-opacity="1" stroke-width="1" stroke-linecap="square" stroke-linejoin="bevel" transform="matrix(1,0,0,1,0,0)"
font-family="Sans" font-size="41.6667" font-weight="400" font-style="normal" 
>
</g>
</g>
</svg>
